  0
SECTION
  2
HEADER
  9
$ACADVER
  1
AC1009
  9
$FILLMODE
 70
0
  9
$EXTMIN
 10
0.0000
 20
-5.6200
 30
0.0000
  9
$EXTMAX
 10
24.0000
 20
31.5000
 30
0.0000
  0
ENDSEC
  0
SECTION
  2
TABLES
  0
TABLE
  2
LTYPE
 70
1
  0
LTYPE
  2
CONTINUOUS
 70
64
  3
Solid line
 72
65
 73
0
 40
0
  0
ENDTAB
  0
TABLE
  2
LAYER
 70
255
  0
LAYER
  2
1
 70
64
 62
22
  6
CONTINUOUS
  0
LAYER
  2
16
 70
64
 62
175
  6
CONTINUOUS
  0
LAYER
  2
17
 70
64
 62
82
  6
CONTINUOUS
  0
LAYER
  2
18
 70
64
 62
82
  6
CONTINUOUS
  0
LAYER
  2
19
 70
64
 62
53
  6
CONTINUOUS
  0
LAYER
  2
20
 70
64
 62
7
  6
CONTINUOUS
  0
LAYER
  2
21
 70
64
 62
253
  6
CONTINUOUS
  0
LAYER
  2
22
 70
64
 62
253
  6
CONTINUOUS
  0
LAYER
  2
23
 70
64
 62
7
  6
CONTINUOUS
  0
LAYER
  2
24
 70
64
 62
7
  6
CONTINUOUS
  0
LAYER
  2
25
 70
64
 62
253
  6
CONTINUOUS
  0
LAYER
  2
26
 70
64
 62
253
  6
CONTINUOUS
  0
LAYER
  2
27
 70
64
 62
253
  6
CONTINUOUS
  0
LAYER
  2
28
 70
64
 62
253
  6
CONTINUOUS
  0
LAYER
  2
39
 70
64
 62
22
  6
CONTINUOUS
  0
LAYER
  2
40
 70
64
 62
175
  6
CONTINUOUS
  0
LAYER
  2
41
 70
64
 62
22
  6
CONTINUOUS
  0
LAYER
  2
42
 70
64
 62
175
  6
CONTINUOUS
  0
LAYER
  2
43
 70
64
 62
82
  6
CONTINUOUS
  0
LAYER
  2
46
 70
64
 62
140
  6
CONTINUOUS
  0
LAYER
  2
48
 70
64
 62
253
  6
CONTINUOUS
  0
LAYER
  2
49
 70
64
 62
253
  6
CONTINUOUS
  0
LAYER
  2
51
 70
64
 62
253
  6
CONTINUOUS
  0
LAYER
  2
52
 70
64
 62
253
  6
CONTINUOUS
  0
ENDTAB
  0
ENDSEC
  0
SECTION
  2
BLOCKS
  0
BLOCK
  8
0
  2
RECT
 70
64
 10
0.0000
 20
0.0000
 30
0.0000
  3
RECT
  0
SOLID
  8
0
 10
-0.5000
 20
-0.5000
 30
0.0000
 11
0.5000
 21
-0.5000
 31
0.0000
 12
-0.5000
 22
0.5000
 32
0.0000
 13
0.5000
 23
0.5000
 33
0.0000
  0
ENDBLK
  8
0
  0
BLOCK
  8
0
  2
PIE
 70
64
 10
0.0000
 20
0.0000
 30
0.0000
  3
PIE
  0
CIRCLE
  8
0
 10
0.0000
 20
0.0000
 30
0.0000
 40
0.5000
  0
ENDBLK
  8
0
  0
BLOCK
  8
0
  2
OCTAGONP
 70
64
 10
0.0000
 20
0.0000
 30
0.0000
  3
OCTAGONP
  0
POLYLINE
  8
0
 66
1
 10
0.0000
 20
0.0000
 30
0.0000
 40
0.0000
 41
0.0000
 70
1
  0
VERTEX
  8
0
 10
-0.5000
 20
-0.2071
 30
0.0000
  0
VERTEX
  8
0
 10
-0.5000
 20
0.2071
 30
0.0000
  0
VERTEX
  8
0
 10
-0.2071
 20
0.5000
 30
0.0000
  0
VERTEX
  8
0
 10
0.2071
 20
0.5000
 30
0.0000
  0
VERTEX
  8
0
 10
0.5000
 20
0.2071
 30
0.0000
  0
VERTEX
  8
0
 10
0.5000
 20
-0.2071
 30
0.0000
  0
VERTEX
  8
0
 10
0.2071
 20
-0.5000
 30
0.0000
  0
VERTEX
  8
0
 10
-0.2071
 20
-0.5000
 30
0.0000
  0
SEQEND
  8
0
  0
ENDBLK
  8
0
  0
BLOCK
  8
0
  2
SQUAREP
 70
64
 10
0.0000
 20
0.0000
 30
0.0000
  3
SQUAREP
  0
SOLID
  8
0
 10
-0.5000
 20
-0.5000
 30
0.0000
 11
0.5000
 21
-0.5000
 31
0.0000
 12
-0.5000
 22
0.5000
 32
0.0000
 13
0.5000
 23
0.5000
 33
0.0000
  0
ENDBLK
  8
0
  0
BLOCK
  8
0
  2
ROUNDP
 70
64
 10
0.0000
 20
0.0000
 30
0.0000
  3
ROUNDP
  0
CIRCLE
  8
0
 10
0.0000
 20
0.0000
 30
0.0000
 40
0.5000
  0
ENDBLK
  8
0
  0
BLOCK
  8
0
  2
ANNULUSP
 70
64
 10
0.0000
 20
0.0000
 30
0.0000
  3
ANNULUSP
  0
CIRCLE
  8
0
 10
0.0000
 20
0.0000
 30
0.0000
 40
0.5000
  0
ENDBLK
  8
0
  0
BLOCK
  8
0
  2
THERMALP
 70
64
 10
0.0000
 20
0.0000
 30
0.0000
  3
THERMALP
  0
POLYLINE
  8
0
 66
1
 10
0.0000
 20
0.0000
 30
0.0000
 40
0.0000
 41
0.0000
 70
1
  0
VERTEX
  8
0
 10
-0.2379
 20
0.4000
 30
0.0000
  0
VERTEX
  8
0
 10
0.2379
 20
0.4000
 30
0.0000
 42
1.0000
  0
VERTEX
  8
0
 10
0.2379
 20
0.5000
 30
0.0000
  0
VERTEX
  8
0
 10
-0.2379
 20
0.5000
 30
0.0000
 42
1.0000
  0
SEQEND
  8
0
  0
POLYLINE
  8
0
 66
1
 10
0.0000
 20
0.0000
 30
0.0000
 40
0.0000
 41
0.0000
 70
1
  0
VERTEX
  8
0
 10
0.4000
 20
0.2379
 30
0.0000
  0
VERTEX
  8
0
 10
0.4000
 20
-0.2379
 30
0.0000
 42
1.0000
  0
VERTEX
  8
0
 10
0.5000
 20
-0.2379
 30
0.0000
  0
VERTEX
  8
0
 10
0.5000
 20
0.2379
 30
0.0000
 42
1.0000
  0
SEQEND
  8
0
  0
POLYLINE
  8
0
 66
1
 10
0.0000
 20
0.0000
 30
0.0000
 40
0.0000
 41
0.0000
 70
1
  0
VERTEX
  8
0
 10
0.2379
 20
-0.4000
 30
0.0000
  0
VERTEX
  8
0
 10
-0.2379
 20
-0.4000
 30
0.0000
 42
1.0000
  0
VERTEX
  8
0
 10
-0.2379
 20
-0.5000
 30
0.0000
  0
VERTEX
  8
0
 10
0.2379
 20
-0.5000
 30
0.0000
 42
1.0000
  0
SEQEND
  8
0
  0
POLYLINE
  8
0
 66
1
 10
0.0000
 20
0.0000
 30
0.0000
 40
0.0000
 41
0.0000
 70
1
  0
VERTEX
  8
0
 10
-0.4000
 20
-0.2379
 30
0.0000
  0
VERTEX
  8
0
 10
-0.4000
 20
0.2379
 30
0.0000
 42
1.0000
  0
VERTEX
  8
0
 10
-0.5000
 20
0.2379
 30
0.0000
  0
VERTEX
  8
0
 10
-0.5000
 20
-0.2379
 30
0.0000
 42
1.0000
  0
SEQEND
  8
0
  0
ENDBLK
  8
0
  0
BLOCK
  8
0
  2
OCTAGONV
 70
64
 10
0.0000
 20
0.0000
 30
0.0000
  3
OCTAGONV
  0
POLYLINE
  8
0
 66
1
 10
0.0000
 20
0.0000
 30
0.0000
 40
0.0000
 41
0.0000
 70
1
  0
VERTEX
  8
0
 10
-0.5000
 20
-0.2071
 30
0.0000
  0
VERTEX
  8
0
 10
-0.5000
 20
0.2071
 30
0.0000
  0
VERTEX
  8
0
 10
-0.2071
 20
0.5000
 30
0.0000
  0
VERTEX
  8
0
 10
0.2071
 20
0.5000
 30
0.0000
  0
VERTEX
  8
0
 10
0.5000
 20
0.2071
 30
0.0000
  0
VERTEX
  8
0
 10
0.5000
 20
-0.2071
 30
0.0000
  0
VERTEX
  8
0
 10
0.2071
 20
-0.5000
 30
0.0000
  0
VERTEX
  8
0
 10
-0.2071
 20
-0.5000
 30
0.0000
  0
SEQEND
  8
0
  0
ENDBLK
  8
0
  0
BLOCK
  8
0
  2
SQUAREV
 70
64
 10
0.0000
 20
0.0000
 30
0.0000
  3
SQUAREV
  0
SOLID
  8
0
 10
-0.5000
 20
-0.5000
 30
0.0000
 11
0.5000
 21
-0.5000
 31
0.0000
 12
-0.5000
 22
0.5000
 32
0.0000
 13
0.5000
 23
0.5000
 33
0.0000
  0
ENDBLK
  8
0
  0
BLOCK
  8
0
  2
ROUNDV
 70
64
 10
0.0000
 20
0.0000
 30
0.0000
  3
ROUNDV
  0
CIRCLE
  8
0
 10
0.0000
 20
0.0000
 30
0.0000
 40
0.5000
  0
ENDBLK
  8
0
  0
BLOCK
  8
0
  2
ANNULUSV
 70
64
 10
0.0000
 20
0.0000
 30
0.0000
  3
ANNULUSV
  0
CIRCLE
  8
0
 10
0.0000
 20
0.0000
 30
0.0000
 40
0.5000
  0
ENDBLK
  8
0
  0
BLOCK
  8
0
  2
THERMALV
 70
64
 10
0.0000
 20
0.0000
 30
0.0000
  3
THERMALV
  0
POLYLINE
  8
0
 66
1
 10
0.0000
 20
0.0000
 30
0.0000
 40
0.0000
 41
0.0000
 70
1
  0
VERTEX
  8
0
 10
-0.2379
 20
0.4000
 30
0.0000
  0
VERTEX
  8
0
 10
0.2379
 20
0.4000
 30
0.0000
 42
1.0000
  0
VERTEX
  8
0
 10
0.2379
 20
0.5000
 30
0.0000
  0
VERTEX
  8
0
 10
-0.2379
 20
0.5000
 30
0.0000
 42
1.0000
  0
SEQEND
  8
0
  0
POLYLINE
  8
0
 66
1
 10
0.0000
 20
0.0000
 30
0.0000
 40
0.0000
 41
0.0000
 70
1
  0
VERTEX
  8
0
 10
0.4000
 20
0.2379
 30
0.0000
  0
VERTEX
  8
0
 10
0.4000
 20
-0.2379
 30
0.0000
 42
1.0000
  0
VERTEX
  8
0
 10
0.5000
 20
-0.2379
 30
0.0000
  0
VERTEX
  8
0
 10
0.5000
 20
0.2379
 30
0.0000
 42
1.0000
  0
SEQEND
  8
0
  0
POLYLINE
  8
0
 66
1
 10
0.0000
 20
0.0000
 30
0.0000
 40
0.0000
 41
0.0000
 70
1
  0
VERTEX
  8
0
 10
0.2379
 20
-0.4000
 30
0.0000
  0
VERTEX
  8
0
 10
-0.2379
 20
-0.4000
 30
0.0000
 42
1.0000
  0
VERTEX
  8
0
 10
-0.2379
 20
-0.5000
 30
0.0000
  0
VERTEX
  8
0
 10
0.2379
 20
-0.5000
 30
0.0000
 42
1.0000
  0
SEQEND
  8
0
  0
POLYLINE
  8
0
 66
1
 10
0.0000
 20
0.0000
 30
0.0000
 40
0.0000
 41
0.0000
 70
1
  0
VERTEX
  8
0
 10
-0.4000
 20
-0.2379
 30
0.0000
  0
VERTEX
  8
0
 10
-0.4000
 20
0.2379
 30
0.0000
 42
1.0000
  0
VERTEX
  8
0
 10
-0.5000
 20
0.2379
 30
0.0000
  0
VERTEX
  8
0
 10
-0.5000
 20
-0.2379
 30
0.0000
 42
1.0000
  0
SEQEND
  8
0
  0
ENDBLK
  8
0
  0
BLOCK
  8
0
  2
LONGP100
 70
64
 10
0.0000
 20
0.0000
 30
0.0000
  3
LONGP100
  0
POLYLINE
  8
0
 66
1
 10
0.0000
 20
0.0000
 30
0.0000
 40
0.0000
 41
0.0000
 70
1
  0
VERTEX
  8
0
 10
-0.5000
 20
-0.5000
 30
0.0000
  0
VERTEX
  8
0
 10
0.5000
 20
-0.5000
 30
0.0000
 42
1.0000
  0
VERTEX
  8
0
 10
0.5000
 20
0.5000
 30
0.0000
  0
VERTEX
  8
0
 10
-0.5000
 20
0.5000
 30
0.0000
 42
1.0000
  0
SEQEND
  8
0
  0
ENDBLK
  8
0
  0
ENDSEC
  0
SECTION
  2
ENTITIES
  0
LINE
  8
20
 10
0.0000
 20
0.0000
 30
0.0000
 11
24.0000
 21
0.0000
 31
0.0000
  0
LINE
  8
20
 10
24.0000
 20
0.0000
 30
0.0000
 11
24.0000
 21
31.5000
 31
0.0000
  0
LINE
  8
20
 10
24.0000
 20
31.5000
 30
0.0000
 11
0.0000
 21
31.5000
 31
0.0000
  0
LINE
  8
20
 10
0.0000
 20
31.5000
 30
0.0000
 11
0.0000
 21
0.0000
 31
0.0000
  0
POINT
  8
23
 10
11.0000
 20
5.0000
 30
0.0000
  0
POLYLINE
  8
51
 66
1
 10
0.0000
 20
0.0000
 30
0.0000
 40
0.0000
 41
0.0000
 70
1
  0
VERTEX
  8
51
 10
11.9250
 20
4.4508
 30
0.0000
  0
VERTEX
  8
51
 10
10.0750
 20
4.4508
 30
0.0000
 42
1.0000
  0
VERTEX
  8
51
 10
10.0750
 20
4.3492
 30
0.0000
  0
VERTEX
  8
51
 10
11.9250
 20
4.3492
 30
0.0000
 42
1.0000
  0
SEQEND
  8
0
  0
POLYLINE
  8
51
 66
1
 10
0.0000
 20
0.0000
 30
0.0000
 40
0.0000
 41
0.0000
 70
1
  0
VERTEX
  8
51
 10
10.0750
 20
5.5492
 30
0.0000
  0
VERTEX
  8
51
 10
11.9250
 20
5.5492
 30
0.0000
 42
1.0000
  0
VERTEX
  8
51
 10
11.9250
 20
5.6508
 30
0.0000
  0
VERTEX
  8
51
 10
10.0750
 20
5.6508
 30
0.0000
 42
1.0000
  0
SEQEND
  8
0
  0
POLYLINE
  8
25
 66
1
 10
0.0000
 20
0.0000
 30
0.0000
 40
0.0000
 41
0.0000
 70
1
  0
VERTEX
  8
25
 10
10.8211
 20
3.9579
 30
0.0000
  0
VERTEX
  8
25
 10
10.6643
 20
4.1146
 30
0.0000
 42
1.0000
  0
VERTEX
  8
25
 10
10.6104
 20
4.0608
 30
0.0000
  0
VERTEX
  8
25
 10
10.7672
 20
3.9040
 30
0.0000
 42
1.0000
  0
SEQEND
  8
0
  0
POLYLINE
  8
25
 66
1
 10
0.0000
 20
0.0000
 30
0.0000
 40
0.0000
 41
0.0000
 70
1
  0
VERTEX
  8
25
 10
10.6374
 20
4.1258
 30
0.0000
  0
VERTEX
  8
25
 10
10.3238
 20
4.1258
 30
0.0000
 42
1.0000
  0
VERTEX
  8
25
 10
10.3238
 20
4.0496
 30
0.0000
  0
VERTEX
  8
25
 10
10.6374
 20
4.0496
 30
0.0000
 42
1.0000
  0
SEQEND
  8
0
  0
POLYLINE
  8
25
 66
1
 10
0.0000
 20
0.0000
 30
0.0000
 40
0.0000
 41
0.0000
 70
1
  0
VERTEX
  8
25
 10
10.2969
 20
4.1146
 30
0.0000
  0
VERTEX
  8
25
 10
10.1401
 20
3.9579
 30
0.0000
 42
1.0000
  0
VERTEX
  8
25
 10
10.1940
 20
3.9040
 30
0.0000
  0
VERTEX
  8
25
 10
10.3508
 20
4.0608
 30
0.0000
 42
1.0000
  0
SEQEND
  8
0
  0
POLYLINE
  8
25
 66
1
 10
0.0000
 20
0.0000
 30
0.0000
 40
0.0000
 41
0.0000
 70
1
  0
VERTEX
  8
25
 10
10.1290
 20
3.9309
 30
0.0000
  0
VERTEX
  8
25
 10
10.1290
 20
3.3039
 30
0.0000
 42
1.0000
  0
VERTEX
  8
25
 10
10.2052
 20
3.3039
 30
0.0000
  0
VERTEX
  8
25
 10
10.2052
 20
3.9309
 30
0.0000
 42
1.0000
  0
SEQEND
  8
0
  0
POLYLINE
  8
25
 66
1
 10
0.0000
 20
0.0000
 30
0.0000
 40
0.0000
 41
0.0000
 70
1
  0
VERTEX
  8
25
 10
10.1401
 20
3.2769
 30
0.0000
  0
VERTEX
  8
25
 10
10.2969
 20
3.1202
 30
0.0000
 42
1.0000
  0
VERTEX
  8
25
 10
10.3508
 20
3.1740
 30
0.0000
  0
VERTEX
  8
25
 10
10.1940
 20
3.3308
 30
0.0000
 42
1.0000
  0
SEQEND
  8
0
  0
POLYLINE
  8
25
 66
1
 10
0.0000
 20
0.0000
 30
0.0000
 40
0.0000
 41
0.0000
 70
1
  0
VERTEX
  8
25
 10
10.3238
 20
3.1090
 30
0.0000
  0
VERTEX
  8
25
 10
10.6374
 20
3.1090
 30
0.0000
 42
1.0000
  0
VERTEX
  8
25
 10
10.6374
 20
3.1852
 30
0.0000
  0
VERTEX
  8
25
 10
10.3238
 20
3.1852
 30
0.0000
 42
1.0000
  0
SEQEND
  8
0
  0
POLYLINE
  8
25
 66
1
 10
0.0000
 20
0.0000
 30
0.0000
 40
0.0000
 41
0.0000
 70
1
  0
VERTEX
  8
25
 10
10.6643
 20
3.1202
 30
0.0000
  0
VERTEX
  8
25
 10
10.8211
 20
3.2769
 30
0.0000
 42
1.0000
  0
VERTEX
  8
25
 10
10.7672
 20
3.3308
 30
0.0000
  0
VERTEX
  8
25
 10
10.6104
 20
3.1740
 30
0.0000
 42
1.0000
  0
SEQEND
  8
0
  0
POLYLINE
  8
25
 66
1
 10
0.0000
 20
0.0000
 30
0.0000
 40
0.0000
 41
0.0000
 70
1
  0
VERTEX
  8
25
 10
11.1295
 20
3.7472
 30
0.0000
  0
VERTEX
  8
25
 10
11.4431
 20
4.0608
 30
0.0000
 42
1.0000
  0
VERTEX
  8
25
 10
11.3892
 20
4.1146
 30
0.0000
  0
VERTEX
  8
25
 10
11.0756
 20
3.8011
 30
0.0000
 42
1.0000
  0
SEQEND
  8
0
  0
POLYLINE
  8
25
 66
1
 10
0.0000
 20
0.0000
 30
0.0000
 40
0.0000
 41
0.0000
 70
1
  0
VERTEX
  8
25
 10
11.3780
 20
4.0877
 30
0.0000
  0
VERTEX
  8
25
 10
11.3780
 20
3.1471
 30
0.0000
 42
1.0000
  0
VERTEX
  8
25
 10
11.4542
 20
3.1471
 30
0.0000
  0
VERTEX
  8
25
 10
11.4542
 20
4.0877
 30
0.0000
 42
1.0000
  0
SEQEND
  8
0
  0
POLYLINE
  8
25
 66
1
 10
0.0000
 20
0.0000
 30
0.0000
 40
0.0000
 41
0.0000
 70
1
  0
VERTEX
  8
25
 10
11.1026
 20
3.1090
 30
0.0000
  0
VERTEX
  8
25
 10
11.7297
 20
3.1090
 30
0.0000
 42
1.0000
  0
VERTEX
  8
25
 10
11.7297
 20
3.1852
 30
0.0000
  0
VERTEX
  8
25
 10
11.1026
 20
3.1852
 30
0.0000
 42
1.0000
  0
SEQEND
  8
0
  0
INSERT
  8
51
  2
RECT
 10
11.7500
 20
5.0000
 30
0.0000
 41
0.5000
 42
1.3000
 43
1.0000
 50
180.0000
  0
INSERT
  8
51
  2
RECT
 10
10.2500
 20
5.0000
 30
0.0000
 41
0.5000
 42
1.3000
 43
1.0000
 50
180.0000
  0
INSERT
  8
1
  2
RECT
 10
12.0000
 20
5.0000
 30
0.0000
 41
1.3000
 42
1.6000
 43
1.0000
 50
180.0000
  0
INSERT
  8
1
  2
RECT
 10
10.0000
 20
5.0000
 30
0.0000
 41
1.3000
 42
1.6000
 43
1.0000
 50
180.0000
  0
POINT
  8
23
 10
12.0000
 20
17.0000
 30
0.0000
  0
POLYLINE
  8
51
 66
1
 10
0.0000
 20
0.0000
 30
0.0000
 40
0.0000
 41
0.0000
 70
1
  0
VERTEX
  8
51
 10
11.0856
 20
17.0000
 30
0.0000
  0
VERTEX
  8
51
 10
8.5964
 20
17.0000
 30
0.0000
 42
0.4142
  0
VERTEX
  8
51
 10
12.0000
 20
13.5964
 30
0.0000
  0
VERTEX
  8
51
 10
12.0000
 20
16.0856
 30
0.0000
 42
-0.4142
  0
SEQEND
  8
0
  0
POLYLINE
  8
51
 66
1
 10
0.0000
 20
0.0000
 30
0.0000
 40
0.0000
 41
0.0000
 70
1
  0
VERTEX
  8
51
 10
12.9144
 20
17.0000
 30
0.0000
  0
VERTEX
  8
51
 10
15.4036
 20
17.0000
 30
0.0000
 42
0.4142
  0
VERTEX
  8
51
 10
12.0000
 20
20.4036
 30
0.0000
  0
VERTEX
  8
51
 10
12.0000
 20
17.9144
 30
0.0000
 42
-0.4142
  0
SEQEND
  8
0
  0
POLYLINE
  8
48
 66
1
 10
0.0000
 20
0.0000
 30
0.0000
 40
0.0000
 41
0.0000
 70
1
  0
VERTEX
  8
48
 10
10.8167
 20
14.1794
 30
0.0000
  0
VERTEX
  8
48
 10
11.0116
 20
14.3743
 30
0.0000
 42
1.0000
  0
VERTEX
  8
48
 10
10.9398
 20
14.4461
 30
0.0000
  0
VERTEX
  8
48
 10
10.7449
 20
14.2512
 30
0.0000
 42
1.0000
  0
SEQEND
  8
0
  0
POLYLINE
  8
48
 66
1
 10
0.0000
 20
0.0000
 30
0.0000
 40
0.0000
 41
0.0000
 70
1
  0
VERTEX
  8
48
 10
10.9757
 20
14.3594
 30
0.0000
  0
VERTEX
  8
48
 10
11.3655
 20
14.3594
 30
0.0000
 42
1.0000
  0
VERTEX
  8
48
 10
11.3655
 20
14.4610
 30
0.0000
  0
VERTEX
  8
48
 10
10.9757
 20
14.4610
 30
0.0000
 42
1.0000
  0
SEQEND
  8
0
  0
POLYLINE
  8
48
 66
1
 10
0.0000
 20
0.0000
 30
0.0000
 40
0.0000
 41
0.0000
 70
1
  0
VERTEX
  8
48
 10
11.3296
 20
14.3743
 30
0.0000
  0
VERTEX
  8
48
 10
11.5245
 20
14.1794
 30
0.0000
 42
1.0000
  0
VERTEX
  8
48
 10
11.5963
 20
14.2512
 30
0.0000
  0
VERTEX
  8
48
 10
11.4014
 20
14.4461
 30
0.0000
 42
1.0000
  0
SEQEND
  8
0
  0
POLYLINE
  8
48
 66
1
 10
0.0000
 20
0.0000
 30
0.0000
 40
0.0000
 41
0.0000
 70
1
  0
VERTEX
  8
48
 10
11.5096
 20
14.2153
 30
0.0000
  0
VERTEX
  8
48
 10
11.5096
 20
14.0204
 30
0.0000
 42
1.0000
  0
VERTEX
  8
48
 10
11.6112
 20
14.0204
 30
0.0000
  0
VERTEX
  8
48
 10
11.6112
 20
14.2153
 30
0.0000
 42
1.0000
  0
SEQEND
  8
0
  0
POLYLINE
  8
48
 66
1
 10
0.0000
 20
0.0000
 30
0.0000
 40
0.0000
 41
0.0000
 70
1
  0
VERTEX
  8
48
 10
11.5245
 20
14.0563
 30
0.0000
  0
VERTEX
  8
48
 10
11.3296
 20
13.8614
 30
0.0000
 42
1.0000
  0
VERTEX
  8
48
 10
11.4014
 20
13.7896
 30
0.0000
  0
VERTEX
  8
48
 10
11.5963
 20
13.9845
 30
0.0000
 42
1.0000
  0
SEQEND
  8
0
  0
POLYLINE
  8
48
 66
1
 10
0.0000
 20
0.0000
 30
0.0000
 40
0.0000
 41
0.0000
 70
1
  0
VERTEX
  8
48
 10
11.3655
 20
13.8763
 30
0.0000
  0
VERTEX
  8
48
 10
11.1706
 20
13.8763
 30
0.0000
 42
1.0000
  0
VERTEX
  8
48
 10
11.1706
 20
13.7747
 30
0.0000
  0
VERTEX
  8
48
 10
11.3655
 20
13.7747
 30
0.0000
 42
1.0000
  0
SEQEND
  8
0
  0
POLYLINE
  8
48
 66
1
 10
0.0000
 20
0.0000
 30
0.0000
 40
0.0000
 41
0.0000
 70
1
  0
VERTEX
  8
48
 10
11.3296
 20
13.7896
 30
0.0000
  0
VERTEX
  8
48
 10
11.5245
 20
13.5947
 30
0.0000
 42
1.0000
  0
VERTEX
  8
48
 10
11.5963
 20
13.6665
 30
0.0000
  0
VERTEX
  8
48
 10
11.4014
 20
13.8614
 30
0.0000
 42
1.0000
  0
SEQEND
  8
0
  0
POLYLINE
  8
48
 66
1
 10
0.0000
 20
0.0000
 30
0.0000
 40
0.0000
 41
0.0000
 70
1
  0
VERTEX
  8
48
 10
11.5096
 20
13.6306
 30
0.0000
  0
VERTEX
  8
48
 10
11.5096
 20
13.4357
 30
0.0000
 42
1.0000
  0
VERTEX
  8
48
 10
11.6112
 20
13.4357
 30
0.0000
  0
VERTEX
  8
48
 10
11.6112
 20
13.6306
 30
0.0000
 42
1.0000
  0
SEQEND
  8
0
  0
POLYLINE
  8
48
 66
1
 10
0.0000
 20
0.0000
 30
0.0000
 40
0.0000
 41
0.0000
 70
1
  0
VERTEX
  8
48
 10
11.5245
 20
13.4716
 30
0.0000
  0
VERTEX
  8
48
 10
11.3296
 20
13.2767
 30
0.0000
 42
1.0000
  0
VERTEX
  8
48
 10
11.4014
 20
13.2049
 30
0.0000
  0
VERTEX
  8
48
 10
11.5963
 20
13.3998
 30
0.0000
 42
1.0000
  0
SEQEND
  8
0
  0
POLYLINE
  8
48
 66
1
 10
0.0000
 20
0.0000
 30
0.0000
 40
0.0000
 41
0.0000
 70
1
  0
VERTEX
  8
48
 10
11.3655
 20
13.2916
 30
0.0000
  0
VERTEX
  8
48
 10
10.9757
 20
13.2916
 30
0.0000
 42
1.0000
  0
VERTEX
  8
48
 10
10.9757
 20
13.1900
 30
0.0000
  0
VERTEX
  8
48
 10
11.3655
 20
13.1900
 30
0.0000
 42
1.0000
  0
SEQEND
  8
0
  0
POLYLINE
  8
48
 66
1
 10
0.0000
 20
0.0000
 30
0.0000
 40
0.0000
 41
0.0000
 70
1
  0
VERTEX
  8
48
 10
11.0116
 20
13.2767
 30
0.0000
  0
VERTEX
  8
48
 10
10.8167
 20
13.4716
 30
0.0000
 42
1.0000
  0
VERTEX
  8
48
 10
10.7449
 20
13.3998
 30
0.0000
  0
VERTEX
  8
48
 10
10.9398
 20
13.2049
 30
0.0000
 42
1.0000
  0
SEQEND
  8
0
  0
POLYLINE
  8
48
 66
1
 10
0.0000
 20
0.0000
 30
0.0000
 40
0.0000
 41
0.0000
 70
1
  0
VERTEX
  8
48
 10
11.9861
 20
12.8151
 30
0.0000
  0
VERTEX
  8
48
 10
12.3759
 20
13.2049
 30
0.0000
 42
1.0000
  0
VERTEX
  8
48
 10
12.3041
 20
13.2767
 30
0.0000
  0
VERTEX
  8
48
 10
11.9143
 20
12.8869
 30
0.0000
 42
1.0000
  0
SEQEND
  8
0
  0
POLYLINE
  8
48
 66
1
 10
0.0000
 20
0.0000
 30
0.0000
 40
0.0000
 41
0.0000
 70
1
  0
VERTEX
  8
48
 10
12.3908
 20
13.2408
 30
0.0000
  0
VERTEX
  8
48
 10
12.3908
 20
13.4357
 30
0.0000
 42
1.0000
  0
VERTEX
  8
48
 10
12.2892
 20
13.4357
 30
0.0000
  0
VERTEX
  8
48
 10
12.2892
 20
13.2408
 30
0.0000
 42
1.0000
  0
SEQEND
  8
0
  0
POLYLINE
  8
48
 66
1
 10
0.0000
 20
0.0000
 30
0.0000
 40
0.0000
 41
0.0000
 70
1
  0
VERTEX
  8
48
 10
12.3400
 20
13.4865
 30
0.0000
  0
VERTEX
  8
48
 10
12.1451
 20
13.4865
 30
0.0000
 42
1.0000
  0
VERTEX
  8
48
 10
12.1451
 20
13.3849
 30
0.0000
  0
VERTEX
  8
48
 10
12.3400
 20
13.3849
 30
0.0000
 42
1.0000
  0
SEQEND
  8
0
  0
POLYLINE
  8
48
 66
1
 10
0.0000
 20
0.0000
 30
0.0000
 40
0.0000
 41
0.0000
 70
1
  0
VERTEX
  8
48
 10
12.0943
 20
13.4357
 30
0.0000
  0
VERTEX
  8
48
 10
12.0943
 20
13.2408
 30
0.0000
 42
1.0000
  0
VERTEX
  8
48
 10
12.1959
 20
13.2408
 30
0.0000
  0
VERTEX
  8
48
 10
12.1959
 20
13.4357
 30
0.0000
 42
1.0000
  0
SEQEND
  8
0
  0
POLYLINE
  8
48
 66
1
 10
0.0000
 20
0.0000
 30
0.0000
 40
0.0000
 41
0.0000
 70
1
  0
VERTEX
  8
48
 10
12.1451
 20
13.1900
 30
0.0000
  0
VERTEX
  8
48
 10
12.3400
 20
13.1900
 30
0.0000
 42
1.0000
  0
VERTEX
  8
48
 10
12.3400
 20
13.2916
 30
0.0000
  0
VERTEX
  8
48
 10
12.1451
 20
13.2916
 30
0.0000
 42
1.0000
  0
SEQEND
  8
0
  0
POLYLINE
  8
48
 66
1
 10
0.0000
 20
0.0000
 30
0.0000
 40
0.0000
 41
0.0000
 70
1
  0
VERTEX
  8
48
 10
12.7806
 20
13.4357
 30
0.0000
  0
VERTEX
  8
48
 10
12.7806
 20
14.2153
 30
0.0000
 42
1.0000
  0
VERTEX
  8
48
 10
12.6790
 20
14.2153
 30
0.0000
  0
VERTEX
  8
48
 10
12.6790
 20
13.4357
 30
0.0000
 42
1.0000
  0
SEQEND
  8
0
  0
POLYLINE
  8
48
 66
1
 10
0.0000
 20
0.0000
 30
0.0000
 40
0.0000
 41
0.0000
 70
1
  0
VERTEX
  8
48
 10
12.7657
 20
14.1794
 30
0.0000
  0
VERTEX
  8
48
 10
12.9606
 20
14.3743
 30
0.0000
 42
1.0000
  0
VERTEX
  8
48
 10
12.8888
 20
14.4461
 30
0.0000
  0
VERTEX
  8
48
 10
12.6939
 20
14.2512
 30
0.0000
 42
1.0000
  0
SEQEND
  8
0
  0
POLYLINE
  8
48
 66
1
 10
0.0000
 20
0.0000
 30
0.0000
 40
0.0000
 41
0.0000
 70
1
  0
VERTEX
  8
48
 10
12.9247
 20
14.3594
 30
0.0000
  0
VERTEX
  8
48
 10
13.3145
 20
14.3594
 30
0.0000
 42
1.0000
  0
VERTEX
  8
48
 10
13.3145
 20
14.4610
 30
0.0000
  0
VERTEX
  8
48
 10
12.9247
 20
14.4610
 30
0.0000
 42
1.0000
  0
SEQEND
  8
0
  0
POLYLINE
  8
48
 66
1
 10
0.0000
 20
0.0000
 30
0.0000
 40
0.0000
 41
0.0000
 70
1
  0
VERTEX
  8
48
 10
13.2786
 20
14.3743
 30
0.0000
  0
VERTEX
  8
48
 10
13.4735
 20
14.1794
 30
0.0000
 42
1.0000
  0
VERTEX
  8
48
 10
13.5453
 20
14.2512
 30
0.0000
  0
VERTEX
  8
48
 10
13.3504
 20
14.4461
 30
0.0000
 42
1.0000
  0
SEQEND
  8
0
  0
POLYLINE
  8
48
 66
1
 10
0.0000
 20
0.0000
 30
0.0000
 40
0.0000
 41
0.0000
 70
1
  0
VERTEX
  8
48
 10
13.4586
 20
14.2153
 30
0.0000
  0
VERTEX
  8
48
 10
13.4586
 20
13.4357
 30
0.0000
 42
1.0000
  0
VERTEX
  8
48
 10
13.5602
 20
13.4357
 30
0.0000
  0
VERTEX
  8
48
 10
13.5602
 20
14.2153
 30
0.0000
 42
1.0000
  0
SEQEND
  8
0
  0
POLYLINE
  8
48
 66
1
 10
0.0000
 20
0.0000
 30
0.0000
 40
0.0000
 41
0.0000
 70
1
  0
VERTEX
  8
48
 10
13.4735
 20
13.4716
 30
0.0000
  0
VERTEX
  8
48
 10
13.2786
 20
13.2767
 30
0.0000
 42
1.0000
  0
VERTEX
  8
48
 10
13.3504
 20
13.2049
 30
0.0000
  0
VERTEX
  8
48
 10
13.5453
 20
13.3998
 30
0.0000
 42
1.0000
  0
SEQEND
  8
0
  0
POLYLINE
  8
48
 66
1
 10
0.0000
 20
0.0000
 30
0.0000
 40
0.0000
 41
0.0000
 70
1
  0
VERTEX
  8
48
 10
13.3145
 20
13.2916
 30
0.0000
  0
VERTEX
  8
48
 10
12.9247
 20
13.2916
 30
0.0000
 42
1.0000
  0
VERTEX
  8
48
 10
12.9247
 20
13.1900
 30
0.0000
  0
VERTEX
  8
48
 10
13.3145
 20
13.1900
 30
0.0000
 42
1.0000
  0
SEQEND
  8
0
  0
POLYLINE
  8
48
 66
1
 10
0.0000
 20
0.0000
 30
0.0000
 40
0.0000
 41
0.0000
 70
1
  0
VERTEX
  8
48
 10
12.9606
 20
13.2767
 30
0.0000
  0
VERTEX
  8
48
 10
12.7657
 20
13.4716
 30
0.0000
 42
1.0000
  0
VERTEX
  8
48
 10
12.6939
 20
13.3998
 30
0.0000
  0
VERTEX
  8
48
 10
12.8888
 20
13.2049
 30
0.0000
 42
1.0000
  0
SEQEND
  8
0
  0
POLYLINE
  8
48
 66
1
 10
0.0000
 20
0.0000
 30
0.0000
 40
0.0000
 41
0.0000
 70
1
  0
VERTEX
  8
48
 10
12.7657
 20
13.3998
 30
0.0000
  0
VERTEX
  8
48
 10
13.5453
 20
14.1794
 30
0.0000
 42
1.0000
  0
VERTEX
  8
48
 10
13.4735
 20
14.2512
 30
0.0000
  0
VERTEX
  8
48
 10
12.6939
 20
13.4716
 30
0.0000
 42
1.0000
  0
SEQEND
  8
0
  0
CIRCLE
  8
21
 10
12.0000
 20
17.0000
 30
0.0000
 40
3.3528
  0
CIRCLE
  8
21
 10
12.0000
 20
17.0000
 30
0.0000
 40
3.5052
  0
CIRCLE
  8
51
 10
12.0000
 20
17.0000
 30
0.0000
 40
0.5334
  0
CIRCLE
  8
51
 10
12.0000
 20
17.0000
 30
0.0000
 40
0.9906
  0
CIRCLE
  8
39
 10
12.0000
 20
17.0000
 30
0.0000
 40
2.0320
  0
CIRCLE
  8
39
 10
12.0000
 20
17.0000
 30
0.0000
 40
4.0640
  0
CIRCLE
  8
43
 10
12.0000
 20
17.0000
 30
0.0000
 40
2.0320
  0
CIRCLE
  8
43
 10
12.0000
 20
17.0000
 30
0.0000
 40
4.0640
  0
CIRCLE
  8
40
 10
12.0000
 20
17.0000
 30
0.0000
 40
2.0320
  0
CIRCLE
  8
40
 10
12.0000
 20
17.0000
 30
0.0000
 40
4.0640
  0
CIRCLE
  8
41
 10
12.0000
 20
17.0000
 30
0.0000
 40
2.0320
  0
CIRCLE
  8
41
 10
12.0000
 20
17.0000
 30
0.0000
 40
4.0640
  0
CIRCLE
  8
42
 10
12.0000
 20
17.0000
 30
0.0000
 40
2.0320
  0
CIRCLE
  8
42
 10
12.0000
 20
17.0000
 30
0.0000
 40
4.0640
  0
CIRCLE
  8
21
 10
12.0000
 20
17.0000
 30
0.0000
 40
1.4984
  0
CIRCLE
  8
21
 10
12.0000
 20
17.0000
 30
0.0000
 40
1.7016
  0
CIRCLE
  8
20
 10
12.0000
 20
17.0000
 30
0.0000
 40
1.5000
  0
POINT
  8
23
 10
19.5000
 20
7.0000
 30
0.0000
  0
POLYLINE
  8
51
 66
1
 10
0.0000
 20
0.0000
 30
0.0000
 40
0.0000
 41
0.0000
 70
1
  0
VERTEX
  8
51
 10
18.5856
 20
7.0000
 30
0.0000
  0
VERTEX
  8
51
 10
16.0964
 20
7.0000
 30
0.0000
 42
0.4142
  0
VERTEX
  8
51
 10
19.5000
 20
3.5964
 30
0.0000
  0
VERTEX
  8
51
 10
19.5000
 20
6.0856
 30
0.0000
 42
-0.4142
  0
SEQEND
  8
0
  0
POLYLINE
  8
51
 66
1
 10
0.0000
 20
0.0000
 30
0.0000
 40
0.0000
 41
0.0000
 70
1
  0
VERTEX
  8
51
 10
20.4144
 20
7.0000
 30
0.0000
  0
VERTEX
  8
51
 10
22.9036
 20
7.0000
 30
0.0000
 42
0.4142
  0
VERTEX
  8
51
 10
19.5000
 20
10.4036
 30
0.0000
  0
VERTEX
  8
51
 10
19.5000
 20
7.9144
 30
0.0000
 42
-0.4142
  0
SEQEND
  8
0
  0
POLYLINE
  8
48
 66
1
 10
0.0000
 20
0.0000
 30
0.0000
 40
0.0000
 41
0.0000
 70
1
  0
VERTEX
  8
48
 10
18.3167
 20
4.1794
 30
0.0000
  0
VERTEX
  8
48
 10
18.5116
 20
4.3743
 30
0.0000
 42
1.0000
  0
VERTEX
  8
48
 10
18.4398
 20
4.4461
 30
0.0000
  0
VERTEX
  8
48
 10
18.2449
 20
4.2512
 30
0.0000
 42
1.0000
  0
SEQEND
  8
0
  0
POLYLINE
  8
48
 66
1
 10
0.0000
 20
0.0000
 30
0.0000
 40
0.0000
 41
0.0000
 70
1
  0
VERTEX
  8
48
 10
18.4757
 20
4.3594
 30
0.0000
  0
VERTEX
  8
48
 10
18.8655
 20
4.3594
 30
0.0000
 42
1.0000
  0
VERTEX
  8
48
 10
18.8655
 20
4.4610
 30
0.0000
  0
VERTEX
  8
48
 10
18.4757
 20
4.4610
 30
0.0000
 42
1.0000
  0
SEQEND
  8
0
  0
POLYLINE
  8
48
 66
1
 10
0.0000
 20
0.0000
 30
0.0000
 40
0.0000
 41
0.0000
 70
1
  0
VERTEX
  8
48
 10
18.8296
 20
4.3743
 30
0.0000
  0
VERTEX
  8
48
 10
19.0245
 20
4.1794
 30
0.0000
 42
1.0000
  0
VERTEX
  8
48
 10
19.0963
 20
4.2512
 30
0.0000
  0
VERTEX
  8
48
 10
18.9014
 20
4.4461
 30
0.0000
 42
1.0000
  0
SEQEND
  8
0
  0
POLYLINE
  8
48
 66
1
 10
0.0000
 20
0.0000
 30
0.0000
 40
0.0000
 41
0.0000
 70
1
  0
VERTEX
  8
48
 10
19.0096
 20
4.2153
 30
0.0000
  0
VERTEX
  8
48
 10
19.0096
 20
4.0204
 30
0.0000
 42
1.0000
  0
VERTEX
  8
48
 10
19.1112
 20
4.0204
 30
0.0000
  0
VERTEX
  8
48
 10
19.1112
 20
4.2153
 30
0.0000
 42
1.0000
  0
SEQEND
  8
0
  0
POLYLINE
  8
48
 66
1
 10
0.0000
 20
0.0000
 30
0.0000
 40
0.0000
 41
0.0000
 70
1
  0
VERTEX
  8
48
 10
19.0245
 20
4.0563
 30
0.0000
  0
VERTEX
  8
48
 10
18.8296
 20
3.8614
 30
0.0000
 42
1.0000
  0
VERTEX
  8
48
 10
18.9014
 20
3.7896
 30
0.0000
  0
VERTEX
  8
48
 10
19.0963
 20
3.9845
 30
0.0000
 42
1.0000
  0
SEQEND
  8
0
  0
POLYLINE
  8
48
 66
1
 10
0.0000
 20
0.0000
 30
0.0000
 40
0.0000
 41
0.0000
 70
1
  0
VERTEX
  8
48
 10
18.8655
 20
3.8763
 30
0.0000
  0
VERTEX
  8
48
 10
18.6706
 20
3.8763
 30
0.0000
 42
1.0000
  0
VERTEX
  8
48
 10
18.6706
 20
3.7747
 30
0.0000
  0
VERTEX
  8
48
 10
18.8655
 20
3.7747
 30
0.0000
 42
1.0000
  0
SEQEND
  8
0
  0
POLYLINE
  8
48
 66
1
 10
0.0000
 20
0.0000
 30
0.0000
 40
0.0000
 41
0.0000
 70
1
  0
VERTEX
  8
48
 10
18.8296
 20
3.7896
 30
0.0000
  0
VERTEX
  8
48
 10
19.0245
 20
3.5947
 30
0.0000
 42
1.0000
  0
VERTEX
  8
48
 10
19.0963
 20
3.6665
 30
0.0000
  0
VERTEX
  8
48
 10
18.9014
 20
3.8614
 30
0.0000
 42
1.0000
  0
SEQEND
  8
0
  0
POLYLINE
  8
48
 66
1
 10
0.0000
 20
0.0000
 30
0.0000
 40
0.0000
 41
0.0000
 70
1
  0
VERTEX
  8
48
 10
19.0096
 20
3.6306
 30
0.0000
  0
VERTEX
  8
48
 10
19.0096
 20
3.4357
 30
0.0000
 42
1.0000
  0
VERTEX
  8
48
 10
19.1112
 20
3.4357
 30
0.0000
  0
VERTEX
  8
48
 10
19.1112
 20
3.6306
 30
0.0000
 42
1.0000
  0
SEQEND
  8
0
  0
POLYLINE
  8
48
 66
1
 10
0.0000
 20
0.0000
 30
0.0000
 40
0.0000
 41
0.0000
 70
1
  0
VERTEX
  8
48
 10
19.0245
 20
3.4716
 30
0.0000
  0
VERTEX
  8
48
 10
18.8296
 20
3.2767
 30
0.0000
 42
1.0000
  0
VERTEX
  8
48
 10
18.9014
 20
3.2049
 30
0.0000
  0
VERTEX
  8
48
 10
19.0963
 20
3.3998
 30
0.0000
 42
1.0000
  0
SEQEND
  8
0
  0
POLYLINE
  8
48
 66
1
 10
0.0000
 20
0.0000
 30
0.0000
 40
0.0000
 41
0.0000
 70
1
  0
VERTEX
  8
48
 10
18.8655
 20
3.2916
 30
0.0000
  0
VERTEX
  8
48
 10
18.4757
 20
3.2916
 30
0.0000
 42
1.0000
  0
VERTEX
  8
48
 10
18.4757
 20
3.1900
 30
0.0000
  0
VERTEX
  8
48
 10
18.8655
 20
3.1900
 30
0.0000
 42
1.0000
  0
SEQEND
  8
0
  0
POLYLINE
  8
48
 66
1
 10
0.0000
 20
0.0000
 30
0.0000
 40
0.0000
 41
0.0000
 70
1
  0
VERTEX
  8
48
 10
18.5116
 20
3.2767
 30
0.0000
  0
VERTEX
  8
48
 10
18.3167
 20
3.4716
 30
0.0000
 42
1.0000
  0
VERTEX
  8
48
 10
18.2449
 20
3.3998
 30
0.0000
  0
VERTEX
  8
48
 10
18.4398
 20
3.2049
 30
0.0000
 42
1.0000
  0
SEQEND
  8
0
  0
POLYLINE
  8
48
 66
1
 10
0.0000
 20
0.0000
 30
0.0000
 40
0.0000
 41
0.0000
 70
1
  0
VERTEX
  8
48
 10
19.4861
 20
2.8151
 30
0.0000
  0
VERTEX
  8
48
 10
19.8759
 20
3.2049
 30
0.0000
 42
1.0000
  0
VERTEX
  8
48
 10
19.8041
 20
3.2767
 30
0.0000
  0
VERTEX
  8
48
 10
19.4143
 20
2.8869
 30
0.0000
 42
1.0000
  0
SEQEND
  8
0
  0
POLYLINE
  8
48
 66
1
 10
0.0000
 20
0.0000
 30
0.0000
 40
0.0000
 41
0.0000
 70
1
  0
VERTEX
  8
48
 10
19.8908
 20
3.2408
 30
0.0000
  0
VERTEX
  8
48
 10
19.8908
 20
3.4357
 30
0.0000
 42
1.0000
  0
VERTEX
  8
48
 10
19.7892
 20
3.4357
 30
0.0000
  0
VERTEX
  8
48
 10
19.7892
 20
3.2408
 30
0.0000
 42
1.0000
  0
SEQEND
  8
0
  0
POLYLINE
  8
48
 66
1
 10
0.0000
 20
0.0000
 30
0.0000
 40
0.0000
 41
0.0000
 70
1
  0
VERTEX
  8
48
 10
19.8400
 20
3.4865
 30
0.0000
  0
VERTEX
  8
48
 10
19.6451
 20
3.4865
 30
0.0000
 42
1.0000
  0
VERTEX
  8
48
 10
19.6451
 20
3.3849
 30
0.0000
  0
VERTEX
  8
48
 10
19.8400
 20
3.3849
 30
0.0000
 42
1.0000
  0
SEQEND
  8
0
  0
POLYLINE
  8
48
 66
1
 10
0.0000
 20
0.0000
 30
0.0000
 40
0.0000
 41
0.0000
 70
1
  0
VERTEX
  8
48
 10
19.5943
 20
3.4357
 30
0.0000
  0
VERTEX
  8
48
 10
19.5943
 20
3.2408
 30
0.0000
 42
1.0000
  0
VERTEX
  8
48
 10
19.6959
 20
3.2408
 30
0.0000
  0
VERTEX
  8
48
 10
19.6959
 20
3.4357
 30
0.0000
 42
1.0000
  0
SEQEND
  8
0
  0
POLYLINE
  8
48
 66
1
 10
0.0000
 20
0.0000
 30
0.0000
 40
0.0000
 41
0.0000
 70
1
  0
VERTEX
  8
48
 10
19.6451
 20
3.1900
 30
0.0000
  0
VERTEX
  8
48
 10
19.8400
 20
3.1900
 30
0.0000
 42
1.0000
  0
VERTEX
  8
48
 10
19.8400
 20
3.2916
 30
0.0000
  0
VERTEX
  8
48
 10
19.6451
 20
3.2916
 30
0.0000
 42
1.0000
  0
SEQEND
  8
0
  0
POLYLINE
  8
48
 66
1
 10
0.0000
 20
0.0000
 30
0.0000
 40
0.0000
 41
0.0000
 70
1
  0
VERTEX
  8
48
 10
20.2806
 20
3.4357
 30
0.0000
  0
VERTEX
  8
48
 10
20.2806
 20
4.2153
 30
0.0000
 42
1.0000
  0
VERTEX
  8
48
 10
20.1790
 20
4.2153
 30
0.0000
  0
VERTEX
  8
48
 10
20.1790
 20
3.4357
 30
0.0000
 42
1.0000
  0
SEQEND
  8
0
  0
POLYLINE
  8
48
 66
1
 10
0.0000
 20
0.0000
 30
0.0000
 40
0.0000
 41
0.0000
 70
1
  0
VERTEX
  8
48
 10
20.2657
 20
4.1794
 30
0.0000
  0
VERTEX
  8
48
 10
20.4606
 20
4.3743
 30
0.0000
 42
1.0000
  0
VERTEX
  8
48
 10
20.3888
 20
4.4461
 30
0.0000
  0
VERTEX
  8
48
 10
20.1939
 20
4.2512
 30
0.0000
 42
1.0000
  0
SEQEND
  8
0
  0
POLYLINE
  8
48
 66
1
 10
0.0000
 20
0.0000
 30
0.0000
 40
0.0000
 41
0.0000
 70
1
  0
VERTEX
  8
48
 10
20.4247
 20
4.3594
 30
0.0000
  0
VERTEX
  8
48
 10
20.8145
 20
4.3594
 30
0.0000
 42
1.0000
  0
VERTEX
  8
48
 10
20.8145
 20
4.4610
 30
0.0000
  0
VERTEX
  8
48
 10
20.4247
 20
4.4610
 30
0.0000
 42
1.0000
  0
SEQEND
  8
0
  0
POLYLINE
  8
48
 66
1
 10
0.0000
 20
0.0000
 30
0.0000
 40
0.0000
 41
0.0000
 70
1
  0
VERTEX
  8
48
 10
20.7786
 20
4.3743
 30
0.0000
  0
VERTEX
  8
48
 10
20.9735
 20
4.1794
 30
0.0000
 42
1.0000
  0
VERTEX
  8
48
 10
21.0453
 20
4.2512
 30
0.0000
  0
VERTEX
  8
48
 10
20.8504
 20
4.4461
 30
0.0000
 42
1.0000
  0
SEQEND
  8
0
  0
POLYLINE
  8
48
 66
1
 10
0.0000
 20
0.0000
 30
0.0000
 40
0.0000
 41
0.0000
 70
1
  0
VERTEX
  8
48
 10
20.9586
 20
4.2153
 30
0.0000
  0
VERTEX
  8
48
 10
20.9586
 20
3.4357
 30
0.0000
 42
1.0000
  0
VERTEX
  8
48
 10
21.0602
 20
3.4357
 30
0.0000
  0
VERTEX
  8
48
 10
21.0602
 20
4.2153
 30
0.0000
 42
1.0000
  0
SEQEND
  8
0
  0
POLYLINE
  8
48
 66
1
 10
0.0000
 20
0.0000
 30
0.0000
 40
0.0000
 41
0.0000
 70
1
  0
VERTEX
  8
48
 10
20.9735
 20
3.4716
 30
0.0000
  0
VERTEX
  8
48
 10
20.7786
 20
3.2767
 30
0.0000
 42
1.0000
  0
VERTEX
  8
48
 10
20.8504
 20
3.2049
 30
0.0000
  0
VERTEX
  8
48
 10
21.0453
 20
3.3998
 30
0.0000
 42
1.0000
  0
SEQEND
  8
0
  0
POLYLINE
  8
48
 66
1
 10
0.0000
 20
0.0000
 30
0.0000
 40
0.0000
 41
0.0000
 70
1
  0
VERTEX
  8
48
 10
20.8145
 20
3.2916
 30
0.0000
  0
VERTEX
  8
48
 10
20.4247
 20
3.2916
 30
0.0000
 42
1.0000
  0
VERTEX
  8
48
 10
20.4247
 20
3.1900
 30
0.0000
  0
VERTEX
  8
48
 10
20.8145
 20
3.1900
 30
0.0000
 42
1.0000
  0
SEQEND
  8
0
  0
POLYLINE
  8
48
 66
1
 10
0.0000
 20
0.0000
 30
0.0000
 40
0.0000
 41
0.0000
 70
1
  0
VERTEX
  8
48
 10
20.4606
 20
3.2767
 30
0.0000
  0
VERTEX
  8
48
 10
20.2657
 20
3.4716
 30
0.0000
 42
1.0000
  0
VERTEX
  8
48
 10
20.1939
 20
3.3998
 30
0.0000
  0
VERTEX
  8
48
 10
20.3888
 20
3.2049
 30
0.0000
 42
1.0000
  0
SEQEND
  8
0
  0
POLYLINE
  8
48
 66
1
 10
0.0000
 20
0.0000
 30
0.0000
 40
0.0000
 41
0.0000
 70
1
  0
VERTEX
  8
48
 10
20.2657
 20
3.3998
 30
0.0000
  0
VERTEX
  8
48
 10
21.0453
 20
4.1794
 30
0.0000
 42
1.0000
  0
VERTEX
  8
48
 10
20.9735
 20
4.2512
 30
0.0000
  0
VERTEX
  8
48
 10
20.1939
 20
3.4716
 30
0.0000
 42
1.0000
  0
SEQEND
  8
0
  0
CIRCLE
  8
21
 10
19.5000
 20
7.0000
 30
0.0000
 40
3.3528
  0
CIRCLE
  8
21
 10
19.5000
 20
7.0000
 30
0.0000
 40
3.5052
  0
CIRCLE
  8
51
 10
19.5000
 20
7.0000
 30
0.0000
 40
0.5334
  0
CIRCLE
  8
51
 10
19.5000
 20
7.0000
 30
0.0000
 40
0.9906
  0
CIRCLE
  8
39
 10
19.5000
 20
7.0000
 30
0.0000
 40
2.0320
  0
CIRCLE
  8
39
 10
19.5000
 20
7.0000
 30
0.0000
 40
4.0640
  0
CIRCLE
  8
43
 10
19.5000
 20
7.0000
 30
0.0000
 40
2.0320
  0
CIRCLE
  8
43
 10
19.5000
 20
7.0000
 30
0.0000
 40
4.0640
  0
CIRCLE
  8
40
 10
19.5000
 20
7.0000
 30
0.0000
 40
2.0320
  0
CIRCLE
  8
40
 10
19.5000
 20
7.0000
 30
0.0000
 40
4.0640
  0
CIRCLE
  8
41
 10
19.5000
 20
7.0000
 30
0.0000
 40
2.0320
  0
CIRCLE
  8
41
 10
19.5000
 20
7.0000
 30
0.0000
 40
4.0640
  0
CIRCLE
  8
42
 10
19.5000
 20
7.0000
 30
0.0000
 40
2.0320
  0
CIRCLE
  8
42
 10
19.5000
 20
7.0000
 30
0.0000
 40
4.0640
  0
CIRCLE
  8
21
 10
19.5000
 20
7.0000
 30
0.0000
 40
1.4984
  0
CIRCLE
  8
21
 10
19.5000
 20
7.0000
 30
0.0000
 40
1.7016
  0
CIRCLE
  8
20
 10
19.5000
 20
7.0000
 30
0.0000
 40
1.5000
  0
POINT
  8
23
 10
4.5000
 20
7.0000
 30
0.0000
  0
POLYLINE
  8
51
 66
1
 10
0.0000
 20
0.0000
 30
0.0000
 40
0.0000
 41
0.0000
 70
1
  0
VERTEX
  8
51
 10
3.5856
 20
7.0000
 30
0.0000
  0
VERTEX
  8
51
 10
1.0964
 20
7.0000
 30
0.0000
 42
0.4142
  0
VERTEX
  8
51
 10
4.5000
 20
3.5964
 30
0.0000
  0
VERTEX
  8
51
 10
4.5000
 20
6.0856
 30
0.0000
 42
-0.4142
  0
SEQEND
  8
0
  0
POLYLINE
  8
51
 66
1
 10
0.0000
 20
0.0000
 30
0.0000
 40
0.0000
 41
0.0000
 70
1
  0
VERTEX
  8
51
 10
5.4144
 20
7.0000
 30
0.0000
  0
VERTEX
  8
51
 10
7.9036
 20
7.0000
 30
0.0000
 42
0.4142
  0
VERTEX
  8
51
 10
4.5000
 20
10.4036
 30
0.0000
  0
VERTEX
  8
51
 10
4.5000
 20
7.9144
 30
0.0000
 42
-0.4142
  0
SEQEND
  8
0
  0
POLYLINE
  8
48
 66
1
 10
0.0000
 20
0.0000
 30
0.0000
 40
0.0000
 41
0.0000
 70
1
  0
VERTEX
  8
48
 10
3.3167
 20
4.1794
 30
0.0000
  0
VERTEX
  8
48
 10
3.5116
 20
4.3743
 30
0.0000
 42
1.0000
  0
VERTEX
  8
48
 10
3.4398
 20
4.4461
 30
0.0000
  0
VERTEX
  8
48
 10
3.2449
 20
4.2512
 30
0.0000
 42
1.0000
  0
SEQEND
  8
0
  0
POLYLINE
  8
48
 66
1
 10
0.0000
 20
0.0000
 30
0.0000
 40
0.0000
 41
0.0000
 70
1
  0
VERTEX
  8
48
 10
3.4757
 20
4.3594
 30
0.0000
  0
VERTEX
  8
48
 10
3.8655
 20
4.3594
 30
0.0000
 42
1.0000
  0
VERTEX
  8
48
 10
3.8655
 20
4.4610
 30
0.0000
  0
VERTEX
  8
48
 10
3.4757
 20
4.4610
 30
0.0000
 42
1.0000
  0
SEQEND
  8
0
  0
POLYLINE
  8
48
 66
1
 10
0.0000
 20
0.0000
 30
0.0000
 40
0.0000
 41
0.0000
 70
1
  0
VERTEX
  8
48
 10
3.8296
 20
4.3743
 30
0.0000
  0
VERTEX
  8
48
 10
4.0245
 20
4.1794
 30
0.0000
 42
1.0000
  0
VERTEX
  8
48
 10
4.0963
 20
4.2512
 30
0.0000
  0
VERTEX
  8
48
 10
3.9014
 20
4.4461
 30
0.0000
 42
1.0000
  0
SEQEND
  8
0
  0
POLYLINE
  8
48
 66
1
 10
0.0000
 20
0.0000
 30
0.0000
 40
0.0000
 41
0.0000
 70
1
  0
VERTEX
  8
48
 10
4.0096
 20
4.2153
 30
0.0000
  0
VERTEX
  8
48
 10
4.0096
 20
4.0204
 30
0.0000
 42
1.0000
  0
VERTEX
  8
48
 10
4.1112
 20
4.0204
 30
0.0000
  0
VERTEX
  8
48
 10
4.1112
 20
4.2153
 30
0.0000
 42
1.0000
  0
SEQEND
  8
0
  0
POLYLINE
  8
48
 66
1
 10
0.0000
 20
0.0000
 30
0.0000
 40
0.0000
 41
0.0000
 70
1
  0
VERTEX
  8
48
 10
4.0245
 20
4.0563
 30
0.0000
  0
VERTEX
  8
48
 10
3.8296
 20
3.8614
 30
0.0000
 42
1.0000
  0
VERTEX
  8
48
 10
3.9014
 20
3.7896
 30
0.0000
  0
VERTEX
  8
48
 10
4.0963
 20
3.9845
 30
0.0000
 42
1.0000
  0
SEQEND
  8
0
  0
POLYLINE
  8
48
 66
1
 10
0.0000
 20
0.0000
 30
0.0000
 40
0.0000
 41
0.0000
 70
1
  0
VERTEX
  8
48
 10
3.8655
 20
3.8763
 30
0.0000
  0
VERTEX
  8
48
 10
3.6706
 20
3.8763
 30
0.0000
 42
1.0000
  0
VERTEX
  8
48
 10
3.6706
 20
3.7747
 30
0.0000
  0
VERTEX
  8
48
 10
3.8655
 20
3.7747
 30
0.0000
 42
1.0000
  0
SEQEND
  8
0
  0
POLYLINE
  8
48
 66
1
 10
0.0000
 20
0.0000
 30
0.0000
 40
0.0000
 41
0.0000
 70
1
  0
VERTEX
  8
48
 10
3.8296
 20
3.7896
 30
0.0000
  0
VERTEX
  8
48
 10
4.0245
 20
3.5947
 30
0.0000
 42
1.0000
  0
VERTEX
  8
48
 10
4.0963
 20
3.6665
 30
0.0000
  0
VERTEX
  8
48
 10
3.9014
 20
3.8614
 30
0.0000
 42
1.0000
  0
SEQEND
  8
0
  0
POLYLINE
  8
48
 66
1
 10
0.0000
 20
0.0000
 30
0.0000
 40
0.0000
 41
0.0000
 70
1
  0
VERTEX
  8
48
 10
4.0096
 20
3.6306
 30
0.0000
  0
VERTEX
  8
48
 10
4.0096
 20
3.4357
 30
0.0000
 42
1.0000
  0
VERTEX
  8
48
 10
4.1112
 20
3.4357
 30
0.0000
  0
VERTEX
  8
48
 10
4.1112
 20
3.6306
 30
0.0000
 42
1.0000
  0
SEQEND
  8
0
  0
POLYLINE
  8
48
 66
1
 10
0.0000
 20
0.0000
 30
0.0000
 40
0.0000
 41
0.0000
 70
1
  0
VERTEX
  8
48
 10
4.0245
 20
3.4716
 30
0.0000
  0
VERTEX
  8
48
 10
3.8296
 20
3.2767
 30
0.0000
 42
1.0000
  0
VERTEX
  8
48
 10
3.9014
 20
3.2049
 30
0.0000
  0
VERTEX
  8
48
 10
4.0963
 20
3.3998
 30
0.0000
 42
1.0000
  0
SEQEND
  8
0
  0
POLYLINE
  8
48
 66
1
 10
0.0000
 20
0.0000
 30
0.0000
 40
0.0000
 41
0.0000
 70
1
  0
VERTEX
  8
48
 10
3.8655
 20
3.2916
 30
0.0000
  0
VERTEX
  8
48
 10
3.4757
 20
3.2916
 30
0.0000
 42
1.0000
  0
VERTEX
  8
48
 10
3.4757
 20
3.1900
 30
0.0000
  0
VERTEX
  8
48
 10
3.8655
 20
3.1900
 30
0.0000
 42
1.0000
  0
SEQEND
  8
0
  0
POLYLINE
  8
48
 66
1
 10
0.0000
 20
0.0000
 30
0.0000
 40
0.0000
 41
0.0000
 70
1
  0
VERTEX
  8
48
 10
3.5116
 20
3.2767
 30
0.0000
  0
VERTEX
  8
48
 10
3.3167
 20
3.4716
 30
0.0000
 42
1.0000
  0
VERTEX
  8
48
 10
3.2449
 20
3.3998
 30
0.0000
  0
VERTEX
  8
48
 10
3.4398
 20
3.2049
 30
0.0000
 42
1.0000
  0
SEQEND
  8
0
  0
POLYLINE
  8
48
 66
1
 10
0.0000
 20
0.0000
 30
0.0000
 40
0.0000
 41
0.0000
 70
1
  0
VERTEX
  8
48
 10
4.4861
 20
2.8151
 30
0.0000
  0
VERTEX
  8
48
 10
4.8759
 20
3.2049
 30
0.0000
 42
1.0000
  0
VERTEX
  8
48
 10
4.8041
 20
3.2767
 30
0.0000
  0
VERTEX
  8
48
 10
4.4143
 20
2.8869
 30
0.0000
 42
1.0000
  0
SEQEND
  8
0
  0
POLYLINE
  8
48
 66
1
 10
0.0000
 20
0.0000
 30
0.0000
 40
0.0000
 41
0.0000
 70
1
  0
VERTEX
  8
48
 10
4.8908
 20
3.2408
 30
0.0000
  0
VERTEX
  8
48
 10
4.8908
 20
3.4357
 30
0.0000
 42
1.0000
  0
VERTEX
  8
48
 10
4.7892
 20
3.4357
 30
0.0000
  0
VERTEX
  8
48
 10
4.7892
 20
3.2408
 30
0.0000
 42
1.0000
  0
SEQEND
  8
0
  0
POLYLINE
  8
48
 66
1
 10
0.0000
 20
0.0000
 30
0.0000
 40
0.0000
 41
0.0000
 70
1
  0
VERTEX
  8
48
 10
4.8400
 20
3.4865
 30
0.0000
  0
VERTEX
  8
48
 10
4.6451
 20
3.4865
 30
0.0000
 42
1.0000
  0
VERTEX
  8
48
 10
4.6451
 20
3.3849
 30
0.0000
  0
VERTEX
  8
48
 10
4.8400
 20
3.3849
 30
0.0000
 42
1.0000
  0
SEQEND
  8
0
  0
POLYLINE
  8
48
 66
1
 10
0.0000
 20
0.0000
 30
0.0000
 40
0.0000
 41
0.0000
 70
1
  0
VERTEX
  8
48
 10
4.5943
 20
3.4357
 30
0.0000
  0
VERTEX
  8
48
 10
4.5943
 20
3.2408
 30
0.0000
 42
1.0000
  0
VERTEX
  8
48
 10
4.6959
 20
3.2408
 30
0.0000
  0
VERTEX
  8
48
 10
4.6959
 20
3.4357
 30
0.0000
 42
1.0000
  0
SEQEND
  8
0
  0
POLYLINE
  8
48
 66
1
 10
0.0000
 20
0.0000
 30
0.0000
 40
0.0000
 41
0.0000
 70
1
  0
VERTEX
  8
48
 10
4.6451
 20
3.1900
 30
0.0000
  0
VERTEX
  8
48
 10
4.8400
 20
3.1900
 30
0.0000
 42
1.0000
  0
VERTEX
  8
48
 10
4.8400
 20
3.2916
 30
0.0000
  0
VERTEX
  8
48
 10
4.6451
 20
3.2916
 30
0.0000
 42
1.0000
  0
SEQEND
  8
0
  0
POLYLINE
  8
48
 66
1
 10
0.0000
 20
0.0000
 30
0.0000
 40
0.0000
 41
0.0000
 70
1
  0
VERTEX
  8
48
 10
5.2806
 20
3.4357
 30
0.0000
  0
VERTEX
  8
48
 10
5.2806
 20
4.2153
 30
0.0000
 42
1.0000
  0
VERTEX
  8
48
 10
5.1790
 20
4.2153
 30
0.0000
  0
VERTEX
  8
48
 10
5.1790
 20
3.4357
 30
0.0000
 42
1.0000
  0
SEQEND
  8
0
  0
POLYLINE
  8
48
 66
1
 10
0.0000
 20
0.0000
 30
0.0000
 40
0.0000
 41
0.0000
 70
1
  0
VERTEX
  8
48
 10
5.2657
 20
4.1794
 30
0.0000
  0
VERTEX
  8
48
 10
5.4606
 20
4.3743
 30
0.0000
 42
1.0000
  0
VERTEX
  8
48
 10
5.3888
 20
4.4461
 30
0.0000
  0
VERTEX
  8
48
 10
5.1939
 20
4.2512
 30
0.0000
 42
1.0000
  0
SEQEND
  8
0
  0
POLYLINE
  8
48
 66
1
 10
0.0000
 20
0.0000
 30
0.0000
 40
0.0000
 41
0.0000
 70
1
  0
VERTEX
  8
48
 10
5.4247
 20
4.3594
 30
0.0000
  0
VERTEX
  8
48
 10
5.8145
 20
4.3594
 30
0.0000
 42
1.0000
  0
VERTEX
  8
48
 10
5.8145
 20
4.4610
 30
0.0000
  0
VERTEX
  8
48
 10
5.4247
 20
4.4610
 30
0.0000
 42
1.0000
  0
SEQEND
  8
0
  0
POLYLINE
  8
48
 66
1
 10
0.0000
 20
0.0000
 30
0.0000
 40
0.0000
 41
0.0000
 70
1
  0
VERTEX
  8
48
 10
5.7786
 20
4.3743
 30
0.0000
  0
VERTEX
  8
48
 10
5.9735
 20
4.1794
 30
0.0000
 42
1.0000
  0
VERTEX
  8
48
 10
6.0453
 20
4.2512
 30
0.0000
  0
VERTEX
  8
48
 10
5.8504
 20
4.4461
 30
0.0000
 42
1.0000
  0
SEQEND
  8
0
  0
POLYLINE
  8
48
 66
1
 10
0.0000
 20
0.0000
 30
0.0000
 40
0.0000
 41
0.0000
 70
1
  0
VERTEX
  8
48
 10
5.9586
 20
4.2153
 30
0.0000
  0
VERTEX
  8
48
 10
5.9586
 20
3.4357
 30
0.0000
 42
1.0000
  0
VERTEX
  8
48
 10
6.0602
 20
3.4357
 30
0.0000
  0
VERTEX
  8
48
 10
6.0602
 20
4.2153
 30
0.0000
 42
1.0000
  0
SEQEND
  8
0
  0
POLYLINE
  8
48
 66
1
 10
0.0000
 20
0.0000
 30
0.0000
 40
0.0000
 41
0.0000
 70
1
  0
VERTEX
  8
48
 10
5.9735
 20
3.4716
 30
0.0000
  0
VERTEX
  8
48
 10
5.7786
 20
3.2767
 30
0.0000
 42
1.0000
  0
VERTEX
  8
48
 10
5.8504
 20
3.2049
 30
0.0000
  0
VERTEX
  8
48
 10
6.0453
 20
3.3998
 30
0.0000
 42
1.0000
  0
SEQEND
  8
0
  0
POLYLINE
  8
48
 66
1
 10
0.0000
 20
0.0000
 30
0.0000
 40
0.0000
 41
0.0000
 70
1
  0
VERTEX
  8
48
 10
5.8145
 20
3.2916
 30
0.0000
  0
VERTEX
  8
48
 10
5.4247
 20
3.2916
 30
0.0000
 42
1.0000
  0
VERTEX
  8
48
 10
5.4247
 20
3.1900
 30
0.0000
  0
VERTEX
  8
48
 10
5.8145
 20
3.1900
 30
0.0000
 42
1.0000
  0
SEQEND
  8
0
  0
POLYLINE
  8
48
 66
1
 10
0.0000
 20
0.0000
 30
0.0000
 40
0.0000
 41
0.0000
 70
1
  0
VERTEX
  8
48
 10
5.4606
 20
3.2767
 30
0.0000
  0
VERTEX
  8
48
 10
5.2657
 20
3.4716
 30
0.0000
 42
1.0000
  0
VERTEX
  8
48
 10
5.1939
 20
3.3998
 30
0.0000
  0
VERTEX
  8
48
 10
5.3888
 20
3.2049
 30
0.0000
 42
1.0000
  0
SEQEND
  8
0
  0
POLYLINE
  8
48
 66
1
 10
0.0000
 20
0.0000
 30
0.0000
 40
0.0000
 41
0.0000
 70
1
  0
VERTEX
  8
48
 10
5.2657
 20
3.3998
 30
0.0000
  0
VERTEX
  8
48
 10
6.0453
 20
4.1794
 30
0.0000
 42
1.0000
  0
VERTEX
  8
48
 10
5.9735
 20
4.2512
 30
0.0000
  0
VERTEX
  8
48
 10
5.1939
 20
3.4716
 30
0.0000
 42
1.0000
  0
SEQEND
  8
0
  0
CIRCLE
  8
21
 10
4.5000
 20
7.0000
 30
0.0000
 40
3.3528
  0
CIRCLE
  8
21
 10
4.5000
 20
7.0000
 30
0.0000
 40
3.5052
  0
CIRCLE
  8
51
 10
4.5000
 20
7.0000
 30
0.0000
 40
0.5334
  0
CIRCLE
  8
51
 10
4.5000
 20
7.0000
 30
0.0000
 40
0.9906
  0
CIRCLE
  8
39
 10
4.5000
 20
7.0000
 30
0.0000
 40
2.0320
  0
CIRCLE
  8
39
 10
4.5000
 20
7.0000
 30
0.0000
 40
4.0640
  0
CIRCLE
  8
43
 10
4.5000
 20
7.0000
 30
0.0000
 40
2.0320
  0
CIRCLE
  8
43
 10
4.5000
 20
7.0000
 30
0.0000
 40
4.0640
  0
CIRCLE
  8
40
 10
4.5000
 20
7.0000
 30
0.0000
 40
2.0320
  0
CIRCLE
  8
40
 10
4.5000
 20
7.0000
 30
0.0000
 40
4.0640
  0
CIRCLE
  8
41
 10
4.5000
 20
7.0000
 30
0.0000
 40
2.0320
  0
CIRCLE
  8
41
 10
4.5000
 20
7.0000
 30
0.0000
 40
4.0640
  0
CIRCLE
  8
42
 10
4.5000
 20
7.0000
 30
0.0000
 40
2.0320
  0
CIRCLE
  8
42
 10
4.5000
 20
7.0000
 30
0.0000
 40
4.0640
  0
CIRCLE
  8
21
 10
4.5000
 20
7.0000
 30
0.0000
 40
1.4984
  0
CIRCLE
  8
21
 10
4.5000
 20
7.0000
 30
0.0000
 40
1.7016
  0
CIRCLE
  8
20
 10
4.5000
 20
7.0000
 30
0.0000
 40
1.5000
  0
POINT
  8
23
 10
12.0000
 20
27.0000
 30
0.0000
  0
POLYLINE
  8
51
 66
1
 10
0.0000
 20
0.0000
 30
0.0000
 40
0.0000
 41
0.0000
 70
1
  0
VERTEX
  8
51
 10
11.0856
 20
27.0000
 30
0.0000
  0
VERTEX
  8
51
 10
8.5964
 20
27.0000
 30
0.0000
 42
0.4142
  0
VERTEX
  8
51
 10
12.0000
 20
23.5964
 30
0.0000
  0
VERTEX
  8
51
 10
12.0000
 20
26.0856
 30
0.0000
 42
-0.4142
  0
SEQEND
  8
0
  0
POLYLINE
  8
51
 66
1
 10
0.0000
 20
0.0000
 30
0.0000
 40
0.0000
 41
0.0000
 70
1
  0
VERTEX
  8
51
 10
12.9144
 20
27.0000
 30
0.0000
  0
VERTEX
  8
51
 10
15.4036
 20
27.0000
 30
0.0000
 42
0.4142
  0
VERTEX
  8
51
 10
12.0000
 20
30.4036
 30
0.0000
  0
VERTEX
  8
51
 10
12.0000
 20
27.9144
 30
0.0000
 42
-0.4142
  0
SEQEND
  8
0
  0
POLYLINE
  8
48
 66
1
 10
0.0000
 20
0.0000
 30
0.0000
 40
0.0000
 41
0.0000
 70
1
  0
VERTEX
  8
48
 10
10.8167
 20
24.1794
 30
0.0000
  0
VERTEX
  8
48
 10
11.0116
 20
24.3743
 30
0.0000
 42
1.0000
  0
VERTEX
  8
48
 10
10.9398
 20
24.4461
 30
0.0000
  0
VERTEX
  8
48
 10
10.7449
 20
24.2512
 30
0.0000
 42
1.0000
  0
SEQEND
  8
0
  0
POLYLINE
  8
48
 66
1
 10
0.0000
 20
0.0000
 30
0.0000
 40
0.0000
 41
0.0000
 70
1
  0
VERTEX
  8
48
 10
10.9757
 20
24.3594
 30
0.0000
  0
VERTEX
  8
48
 10
11.3655
 20
24.3594
 30
0.0000
 42
1.0000
  0
VERTEX
  8
48
 10
11.3655
 20
24.4610
 30
0.0000
  0
VERTEX
  8
48
 10
10.9757
 20
24.4610
 30
0.0000
 42
1.0000
  0
SEQEND
  8
0
  0
POLYLINE
  8
48
 66
1
 10
0.0000
 20
0.0000
 30
0.0000
 40
0.0000
 41
0.0000
 70
1
  0
VERTEX
  8
48
 10
11.3296
 20
24.3743
 30
0.0000
  0
VERTEX
  8
48
 10
11.5245
 20
24.1794
 30
0.0000
 42
1.0000
  0
VERTEX
  8
48
 10
11.5963
 20
24.2512
 30
0.0000
  0
VERTEX
  8
48
 10
11.4014
 20
24.4461
 30
0.0000
 42
1.0000
  0
SEQEND
  8
0
  0
POLYLINE
  8
48
 66
1
 10
0.0000
 20
0.0000
 30
0.0000
 40
0.0000
 41
0.0000
 70
1
  0
VERTEX
  8
48
 10
11.5096
 20
24.2153
 30
0.0000
  0
VERTEX
  8
48
 10
11.5096
 20
24.0204
 30
0.0000
 42
1.0000
  0
VERTEX
  8
48
 10
11.6112
 20
24.0204
 30
0.0000
  0
VERTEX
  8
48
 10
11.6112
 20
24.2153
 30
0.0000
 42
1.0000
  0
SEQEND
  8
0
  0
POLYLINE
  8
48
 66
1
 10
0.0000
 20
0.0000
 30
0.0000
 40
0.0000
 41
0.0000
 70
1
  0
VERTEX
  8
48
 10
11.5245
 20
24.0563
 30
0.0000
  0
VERTEX
  8
48
 10
11.3296
 20
23.8614
 30
0.0000
 42
1.0000
  0
VERTEX
  8
48
 10
11.4014
 20
23.7896
 30
0.0000
  0
VERTEX
  8
48
 10
11.5963
 20
23.9845
 30
0.0000
 42
1.0000
  0
SEQEND
  8
0
  0
POLYLINE
  8
48
 66
1
 10
0.0000
 20
0.0000
 30
0.0000
 40
0.0000
 41
0.0000
 70
1
  0
VERTEX
  8
48
 10
11.3655
 20
23.8763
 30
0.0000
  0
VERTEX
  8
48
 10
11.1706
 20
23.8763
 30
0.0000
 42
1.0000
  0
VERTEX
  8
48
 10
11.1706
 20
23.7747
 30
0.0000
  0
VERTEX
  8
48
 10
11.3655
 20
23.7747
 30
0.0000
 42
1.0000
  0
SEQEND
  8
0
  0
POLYLINE
  8
48
 66
1
 10
0.0000
 20
0.0000
 30
0.0000
 40
0.0000
 41
0.0000
 70
1
  0
VERTEX
  8
48
 10
11.3296
 20
23.7896
 30
0.0000
  0
VERTEX
  8
48
 10
11.5245
 20
23.5947
 30
0.0000
 42
1.0000
  0
VERTEX
  8
48
 10
11.5963
 20
23.6665
 30
0.0000
  0
VERTEX
  8
48
 10
11.4014
 20
23.8614
 30
0.0000
 42
1.0000
  0
SEQEND
  8
0
  0
POLYLINE
  8
48
 66
1
 10
0.0000
 20
0.0000
 30
0.0000
 40
0.0000
 41
0.0000
 70
1
  0
VERTEX
  8
48
 10
11.5096
 20
23.6306
 30
0.0000
  0
VERTEX
  8
48
 10
11.5096
 20
23.4357
 30
0.0000
 42
1.0000
  0
VERTEX
  8
48
 10
11.6112
 20
23.4357
 30
0.0000
  0
VERTEX
  8
48
 10
11.6112
 20
23.6306
 30
0.0000
 42
1.0000
  0
SEQEND
  8
0
  0
POLYLINE
  8
48
 66
1
 10
0.0000
 20
0.0000
 30
0.0000
 40
0.0000
 41
0.0000
 70
1
  0
VERTEX
  8
48
 10
11.5245
 20
23.4716
 30
0.0000
  0
VERTEX
  8
48
 10
11.3296
 20
23.2767
 30
0.0000
 42
1.0000
  0
VERTEX
  8
48
 10
11.4014
 20
23.2049
 30
0.0000
  0
VERTEX
  8
48
 10
11.5963
 20
23.3998
 30
0.0000
 42
1.0000
  0
SEQEND
  8
0
  0
POLYLINE
  8
48
 66
1
 10
0.0000
 20
0.0000
 30
0.0000
 40
0.0000
 41
0.0000
 70
1
  0
VERTEX
  8
48
 10
11.3655
 20
23.2916
 30
0.0000
  0
VERTEX
  8
48
 10
10.9757
 20
23.2916
 30
0.0000
 42
1.0000
  0
VERTEX
  8
48
 10
10.9757
 20
23.1900
 30
0.0000
  0
VERTEX
  8
48
 10
11.3655
 20
23.1900
 30
0.0000
 42
1.0000
  0
SEQEND
  8
0
  0
POLYLINE
  8
48
 66
1
 10
0.0000
 20
0.0000
 30
0.0000
 40
0.0000
 41
0.0000
 70
1
  0
VERTEX
  8
48
 10
11.0116
 20
23.2767
 30
0.0000
  0
VERTEX
  8
48
 10
10.8167
 20
23.4716
 30
0.0000
 42
1.0000
  0
VERTEX
  8
48
 10
10.7449
 20
23.3998
 30
0.0000
  0
VERTEX
  8
48
 10
10.9398
 20
23.2049
 30
0.0000
 42
1.0000
  0
SEQEND
  8
0
  0
POLYLINE
  8
48
 66
1
 10
0.0000
 20
0.0000
 30
0.0000
 40
0.0000
 41
0.0000
 70
1
  0
VERTEX
  8
48
 10
11.9861
 20
22.8151
 30
0.0000
  0
VERTEX
  8
48
 10
12.3759
 20
23.2049
 30
0.0000
 42
1.0000
  0
VERTEX
  8
48
 10
12.3041
 20
23.2767
 30
0.0000
  0
VERTEX
  8
48
 10
11.9143
 20
22.8869
 30
0.0000
 42
1.0000
  0
SEQEND
  8
0
  0
POLYLINE
  8
48
 66
1
 10
0.0000
 20
0.0000
 30
0.0000
 40
0.0000
 41
0.0000
 70
1
  0
VERTEX
  8
48
 10
12.3908
 20
23.2408
 30
0.0000
  0
VERTEX
  8
48
 10
12.3908
 20
23.4357
 30
0.0000
 42
1.0000
  0
VERTEX
  8
48
 10
12.2892
 20
23.4357
 30
0.0000
  0
VERTEX
  8
48
 10
12.2892
 20
23.2408
 30
0.0000
 42
1.0000
  0
SEQEND
  8
0
  0
POLYLINE
  8
48
 66
1
 10
0.0000
 20
0.0000
 30
0.0000
 40
0.0000
 41
0.0000
 70
1
  0
VERTEX
  8
48
 10
12.3400
 20
23.4865
 30
0.0000
  0
VERTEX
  8
48
 10
12.1451
 20
23.4865
 30
0.0000
 42
1.0000
  0
VERTEX
  8
48
 10
12.1451
 20
23.3849
 30
0.0000
  0
VERTEX
  8
48
 10
12.3400
 20
23.3849
 30
0.0000
 42
1.0000
  0
SEQEND
  8
0
  0
POLYLINE
  8
48
 66
1
 10
0.0000
 20
0.0000
 30
0.0000
 40
0.0000
 41
0.0000
 70
1
  0
VERTEX
  8
48
 10
12.0943
 20
23.4357
 30
0.0000
  0
VERTEX
  8
48
 10
12.0943
 20
23.2408
 30
0.0000
 42
1.0000
  0
VERTEX
  8
48
 10
12.1959
 20
23.2408
 30
0.0000
  0
VERTEX
  8
48
 10
12.1959
 20
23.4357
 30
0.0000
 42
1.0000
  0
SEQEND
  8
0
  0
POLYLINE
  8
48
 66
1
 10
0.0000
 20
0.0000
 30
0.0000
 40
0.0000
 41
0.0000
 70
1
  0
VERTEX
  8
48
 10
12.1451
 20
23.1900
 30
0.0000
  0
VERTEX
  8
48
 10
12.3400
 20
23.1900
 30
0.0000
 42
1.0000
  0
VERTEX
  8
48
 10
12.3400
 20
23.2916
 30
0.0000
  0
VERTEX
  8
48
 10
12.1451
 20
23.2916
 30
0.0000
 42
1.0000
  0
SEQEND
  8
0
  0
POLYLINE
  8
48
 66
1
 10
0.0000
 20
0.0000
 30
0.0000
 40
0.0000
 41
0.0000
 70
1
  0
VERTEX
  8
48
 10
12.7806
 20
23.4357
 30
0.0000
  0
VERTEX
  8
48
 10
12.7806
 20
24.2153
 30
0.0000
 42
1.0000
  0
VERTEX
  8
48
 10
12.6790
 20
24.2153
 30
0.0000
  0
VERTEX
  8
48
 10
12.6790
 20
23.4357
 30
0.0000
 42
1.0000
  0
SEQEND
  8
0
  0
POLYLINE
  8
48
 66
1
 10
0.0000
 20
0.0000
 30
0.0000
 40
0.0000
 41
0.0000
 70
1
  0
VERTEX
  8
48
 10
12.7657
 20
24.1794
 30
0.0000
  0
VERTEX
  8
48
 10
12.9606
 20
24.3743
 30
0.0000
 42
1.0000
  0
VERTEX
  8
48
 10
12.8888
 20
24.4461
 30
0.0000
  0
VERTEX
  8
48
 10
12.6939
 20
24.2512
 30
0.0000
 42
1.0000
  0
SEQEND
  8
0
  0
POLYLINE
  8
48
 66
1
 10
0.0000
 20
0.0000
 30
0.0000
 40
0.0000
 41
0.0000
 70
1
  0
VERTEX
  8
48
 10
12.9247
 20
24.3594
 30
0.0000
  0
VERTEX
  8
48
 10
13.3145
 20
24.3594
 30
0.0000
 42
1.0000
  0
VERTEX
  8
48
 10
13.3145
 20
24.4610
 30
0.0000
  0
VERTEX
  8
48
 10
12.9247
 20
24.4610
 30
0.0000
 42
1.0000
  0
SEQEND
  8
0
  0
POLYLINE
  8
48
 66
1
 10
0.0000
 20
0.0000
 30
0.0000
 40
0.0000
 41
0.0000
 70
1
  0
VERTEX
  8
48
 10
13.2786
 20
24.3743
 30
0.0000
  0
VERTEX
  8
48
 10
13.4735
 20
24.1794
 30
0.0000
 42
1.0000
  0
VERTEX
  8
48
 10
13.5453
 20
24.2512
 30
0.0000
  0
VERTEX
  8
48
 10
13.3504
 20
24.4461
 30
0.0000
 42
1.0000
  0
SEQEND
  8
0
  0
POLYLINE
  8
48
 66
1
 10
0.0000
 20
0.0000
 30
0.0000
 40
0.0000
 41
0.0000
 70
1
  0
VERTEX
  8
48
 10
13.4586
 20
24.2153
 30
0.0000
  0
VERTEX
  8
48
 10
13.4586
 20
23.4357
 30
0.0000
 42
1.0000
  0
VERTEX
  8
48
 10
13.5602
 20
23.4357
 30
0.0000
  0
VERTEX
  8
48
 10
13.5602
 20
24.2153
 30
0.0000
 42
1.0000
  0
SEQEND
  8
0
  0
POLYLINE
  8
48
 66
1
 10
0.0000
 20
0.0000
 30
0.0000
 40
0.0000
 41
0.0000
 70
1
  0
VERTEX
  8
48
 10
13.4735
 20
23.4716
 30
0.0000
  0
VERTEX
  8
48
 10
13.2786
 20
23.2767
 30
0.0000
 42
1.0000
  0
VERTEX
  8
48
 10
13.3504
 20
23.2049
 30
0.0000
  0
VERTEX
  8
48
 10
13.5453
 20
23.3998
 30
0.0000
 42
1.0000
  0
SEQEND
  8
0
  0
POLYLINE
  8
48
 66
1
 10
0.0000
 20
0.0000
 30
0.0000
 40
0.0000
 41
0.0000
 70
1
  0
VERTEX
  8
48
 10
13.3145
 20
23.2916
 30
0.0000
  0
VERTEX
  8
48
 10
12.9247
 20
23.2916
 30
0.0000
 42
1.0000
  0
VERTEX
  8
48
 10
12.9247
 20
23.1900
 30
0.0000
  0
VERTEX
  8
48
 10
13.3145
 20
23.1900
 30
0.0000
 42
1.0000
  0
SEQEND
  8
0
  0
POLYLINE
  8
48
 66
1
 10
0.0000
 20
0.0000
 30
0.0000
 40
0.0000
 41
0.0000
 70
1
  0
VERTEX
  8
48
 10
12.9606
 20
23.2767
 30
0.0000
  0
VERTEX
  8
48
 10
12.7657
 20
23.4716
 30
0.0000
 42
1.0000
  0
VERTEX
  8
48
 10
12.6939
 20
23.3998
 30
0.0000
  0
VERTEX
  8
48
 10
12.8888
 20
23.2049
 30
0.0000
 42
1.0000
  0
SEQEND
  8
0
  0
POLYLINE
  8
48
 66
1
 10
0.0000
 20
0.0000
 30
0.0000
 40
0.0000
 41
0.0000
 70
1
  0
VERTEX
  8
48
 10
12.7657
 20
23.3998
 30
0.0000
  0
VERTEX
  8
48
 10
13.5453
 20
24.1794
 30
0.0000
 42
1.0000
  0
VERTEX
  8
48
 10
13.4735
 20
24.2512
 30
0.0000
  0
VERTEX
  8
48
 10
12.6939
 20
23.4716
 30
0.0000
 42
1.0000
  0
SEQEND
  8
0
  0
CIRCLE
  8
21
 10
12.0000
 20
27.0000
 30
0.0000
 40
3.3528
  0
CIRCLE
  8
21
 10
12.0000
 20
27.0000
 30
0.0000
 40
3.5052
  0
CIRCLE
  8
51
 10
12.0000
 20
27.0000
 30
0.0000
 40
0.5334
  0
CIRCLE
  8
51
 10
12.0000
 20
27.0000
 30
0.0000
 40
0.9906
  0
CIRCLE
  8
39
 10
12.0000
 20
27.0000
 30
0.0000
 40
2.0320
  0
CIRCLE
  8
39
 10
12.0000
 20
27.0000
 30
0.0000
 40
4.0640
  0
CIRCLE
  8
43
 10
12.0000
 20
27.0000
 30
0.0000
 40
2.0320
  0
CIRCLE
  8
43
 10
12.0000
 20
27.0000
 30
0.0000
 40
4.0640
  0
CIRCLE
  8
40
 10
12.0000
 20
27.0000
 30
0.0000
 40
2.0320
  0
CIRCLE
  8
40
 10
12.0000
 20
27.0000
 30
0.0000
 40
4.0640
  0
CIRCLE
  8
41
 10
12.0000
 20
27.0000
 30
0.0000
 40
2.0320
  0
CIRCLE
  8
41
 10
12.0000
 20
27.0000
 30
0.0000
 40
4.0640
  0
CIRCLE
  8
42
 10
12.0000
 20
27.0000
 30
0.0000
 40
2.0320
  0
CIRCLE
  8
42
 10
12.0000
 20
27.0000
 30
0.0000
 40
4.0640
  0
CIRCLE
  8
21
 10
12.0000
 20
27.0000
 30
0.0000
 40
1.4984
  0
CIRCLE
  8
21
 10
12.0000
 20
27.0000
 30
0.0000
 40
1.7016
  0
CIRCLE
  8
20
 10
12.0000
 20
27.0000
 30
0.0000
 40
1.5000
  0
POINT
  8
23
 10
11.0000
 20
7.0000
 30
0.0000
  0
POLYLINE
  8
39
 66
1
 10
0.0000
 20
0.0000
 30
0.0000
 40
0.0000
 41
0.0000
 70
1
  0
VERTEX
  8
39
 10
9.0270
 20
7.9576
 30
0.0000
  0
VERTEX
  8
39
 10
12.9730
 20
7.9576
 30
0.0000
 42
1.0000
  0
VERTEX
  8
39
 10
12.9730
 20
8.0084
 30
0.0000
  0
VERTEX
  8
39
 10
9.0270
 20
8.0084
 30
0.0000
 42
1.0000
  0
SEQEND
  8
0
  0
POLYLINE
  8
39
 66
1
 10
0.0000
 20
0.0000
 30
0.0000
 40
0.0000
 41
0.0000
 70
1
  0
VERTEX
  8
39
 10
12.9730
 20
6.0424
 30
0.0000
  0
VERTEX
  8
39
 10
9.0270
 20
6.0424
 30
0.0000
 42
1.0000
  0
VERTEX
  8
39
 10
9.0270
 20
5.9916
 30
0.0000
  0
VERTEX
  8
39
 10
12.9730
 20
5.9916
 30
0.0000
 42
1.0000
  0
SEQEND
  8
0
  0
POLYLINE
  8
39
 66
1
 10
0.0000
 20
0.0000
 30
0.0000
 40
0.0000
 41
0.0000
 70
1
  0
VERTEX
  8
39
 10
9.0524
 20
6.0170
 30
0.0000
  0
VERTEX
  8
39
 10
9.0524
 20
7.9830
 30
0.0000
 42
1.0000
  0
VERTEX
  8
39
 10
9.0016
 20
7.9830
 30
0.0000
  0
VERTEX
  8
39
 10
9.0016
 20
6.0170
 30
0.0000
 42
1.0000
  0
SEQEND
  8
0
  0
POLYLINE
  8
39
 66
1
 10
0.0000
 20
0.0000
 30
0.0000
 40
0.0000
 41
0.0000
 70
1
  0
VERTEX
  8
39
 10
12.9476
 20
7.9830
 30
0.0000
  0
VERTEX
  8
39
 10
12.9476
 20
6.0170
 30
0.0000
 42
1.0000
  0
VERTEX
  8
39
 10
12.9984
 20
6.0170
 30
0.0000
  0
VERTEX
  8
39
 10
12.9984
 20
7.9830
 30
0.0000
 42
1.0000
  0
SEQEND
  8
0
  0
POLYLINE
  8
51
 66
1
 10
0.0000
 20
0.0000
 30
0.0000
 40
0.0000
 41
0.0000
 70
1
  0
VERTEX
  8
51
 10
11.7112
 20
7.7112
 30
0.0000
  0
VERTEX
  8
51
 10
10.2888
 20
7.7112
 30
0.0000
 42
1.0000
  0
VERTEX
  8
51
 10
10.2888
 20
7.5588
 30
0.0000
  0
VERTEX
  8
51
 10
11.7112
 20
7.5588
 30
0.0000
 42
1.0000
  0
SEQEND
  8
0
  0
POLYLINE
  8
51
 66
1
 10
0.0000
 20
0.0000
 30
0.0000
 40
0.0000
 41
0.0000
 70
1
  0
VERTEX
  8
51
 10
11.7112
 20
6.4412
 30
0.0000
  0
VERTEX
  8
51
 10
10.2888
 20
6.4412
 30
0.0000
 42
1.0000
  0
VERTEX
  8
51
 10
10.2888
 20
6.2888
 30
0.0000
  0
VERTEX
  8
51
 10
11.7112
 20
6.2888
 30
0.0000
 42
1.0000
  0
SEQEND
  8
0
  0
POLYLINE
  8
25
 66
1
 10
0.0000
 20
0.0000
 30
0.0000
 40
0.0000
 41
0.0000
 70
1
  0
VERTEX
  8
25
 10
9.8316
 20
8.3208
 30
0.0000
  0
VERTEX
  8
25
 10
9.8316
 20
9.4902
 30
0.0000
 42
1.0000
  0
VERTEX
  8
25
 10
9.7300
 20
9.4902
 30
0.0000
  0
VERTEX
  8
25
 10
9.7300
 20
8.3208
 30
0.0000
 42
1.0000
  0
SEQEND
  8
0
  0
POLYLINE
  8
25
 66
1
 10
0.0000
 20
0.0000
 30
0.0000
 40
0.0000
 41
0.0000
 70
1
  0
VERTEX
  8
25
 10
9.7808
 20
9.4394
 30
0.0000
  0
VERTEX
  8
25
 10
10.3655
 20
9.4394
 30
0.0000
 42
1.0000
  0
VERTEX
  8
25
 10
10.3655
 20
9.5410
 30
0.0000
  0
VERTEX
  8
25
 10
9.7808
 20
9.5410
 30
0.0000
 42
1.0000
  0
SEQEND
  8
0
  0
POLYLINE
  8
25
 66
1
 10
0.0000
 20
0.0000
 30
0.0000
 40
0.0000
 41
0.0000
 70
1
  0
VERTEX
  8
25
 10
10.3296
 20
9.4543
 30
0.0000
  0
VERTEX
  8
25
 10
10.5245
 20
9.2594
 30
0.0000
 42
1.0000
  0
VERTEX
  8
25
 10
10.5963
 20
9.3312
 30
0.0000
  0
VERTEX
  8
25
 10
10.4014
 20
9.5261
 30
0.0000
 42
1.0000
  0
SEQEND
  8
0
  0
POLYLINE
  8
25
 66
1
 10
0.0000
 20
0.0000
 30
0.0000
 40
0.0000
 41
0.0000
 70
1
  0
VERTEX
  8
25
 10
10.5096
 20
9.2953
 30
0.0000
  0
VERTEX
  8
25
 10
10.5096
 20
8.9055
 30
0.0000
 42
1.0000
  0
VERTEX
  8
25
 10
10.6112
 20
8.9055
 30
0.0000
  0
VERTEX
  8
25
 10
10.6112
 20
9.2953
 30
0.0000
 42
1.0000
  0
SEQEND
  8
0
  0
POLYLINE
  8
25
 66
1
 10
0.0000
 20
0.0000
 30
0.0000
 40
0.0000
 41
0.0000
 70
1
  0
VERTEX
  8
25
 10
10.5245
 20
8.9414
 30
0.0000
  0
VERTEX
  8
25
 10
10.3296
 20
8.7465
 30
0.0000
 42
1.0000
  0
VERTEX
  8
25
 10
10.4014
 20
8.6747
 30
0.0000
  0
VERTEX
  8
25
 10
10.5963
 20
8.8696
 30
0.0000
 42
1.0000
  0
SEQEND
  8
0
  0
POLYLINE
  8
25
 66
1
 10
0.0000
 20
0.0000
 30
0.0000
 40
0.0000
 41
0.0000
 70
1
  0
VERTEX
  8
25
 10
10.3655
 20
8.7614
 30
0.0000
  0
VERTEX
  8
25
 10
9.7808
 20
8.7614
 30
0.0000
 42
1.0000
  0
VERTEX
  8
25
 10
9.7808
 20
8.6598
 30
0.0000
  0
VERTEX
  8
25
 10
10.3655
 20
8.6598
 30
0.0000
 42
1.0000
  0
SEQEND
  8
0
  0
POLYLINE
  8
25
 66
1
 10
0.0000
 20
0.0000
 30
0.0000
 40
0.0000
 41
0.0000
 70
1
  0
VERTEX
  8
25
 10
10.1347
 20
8.6747
 30
0.0000
  0
VERTEX
  8
25
 10
10.5245
 20
8.2849
 30
0.0000
 42
1.0000
  0
VERTEX
  8
25
 10
10.5963
 20
8.3567
 30
0.0000
  0
VERTEX
  8
25
 10
10.2065
 20
8.7465
 30
0.0000
 42
1.0000
  0
SEQEND
  8
0
  0
POLYLINE
  8
25
 66
1
 10
0.0000
 20
0.0000
 30
0.0000
 40
0.0000
 41
0.0000
 70
1
  0
VERTEX
  8
25
 10
10.9861
 20
9.0645
 30
0.0000
  0
VERTEX
  8
25
 10
11.3759
 20
9.4543
 30
0.0000
 42
1.0000
  0
VERTEX
  8
25
 10
11.3041
 20
9.5261
 30
0.0000
  0
VERTEX
  8
25
 10
10.9143
 20
9.1363
 30
0.0000
 42
1.0000
  0
SEQEND
  8
0
  0
POLYLINE
  8
25
 66
1
 10
0.0000
 20
0.0000
 30
0.0000
 40
0.0000
 41
0.0000
 70
1
  0
VERTEX
  8
25
 10
11.2892
 20
9.4902
 30
0.0000
  0
VERTEX
  8
25
 10
11.2892
 20
8.3208
 30
0.0000
 42
1.0000
  0
VERTEX
  8
25
 10
11.3908
 20
8.3208
 30
0.0000
  0
VERTEX
  8
25
 10
11.3908
 20
9.4902
 30
0.0000
 42
1.0000
  0
SEQEND
  8
0
  0
POLYLINE
  8
25
 66
1
 10
0.0000
 20
0.0000
 30
0.0000
 40
0.0000
 41
0.0000
 70
1
  0
VERTEX
  8
25
 10
10.9502
 20
8.2700
 30
0.0000
  0
VERTEX
  8
25
 10
11.7298
 20
8.2700
 30
0.0000
 42
1.0000
  0
VERTEX
  8
25
 10
11.7298
 20
8.3716
 30
0.0000
  0
VERTEX
  8
25
 10
10.9502
 20
8.3716
 30
0.0000
 42
1.0000
  0
SEQEND
  8
0
  0
INSERT
  8
51
  2
RECT
 10
10.1364
 20
7.0000
 30
0.0000
 41
0.3556
 42
1.4224
 43
1.0000
 50
0.0000
  0
INSERT
  8
51
  2
RECT
 10
11.8636
 20
7.0000
 30
0.0000
 41
0.3556
 42
1.4224
 43
1.0000
 50
0.0000
  0
INSERT
  8
1
  2
RECT
 10
10.0500
 20
7.0000
 30
0.0000
 41
1.3000
 42
1.6000
 43
1.0000
 50
0.0000
  0
INSERT
  8
1
  2
RECT
 10
11.9500
 20
7.0000
 30
0.0000
 41
1.3000
 42
1.6000
 43
1.0000
 50
0.0000
  0
POINT
  8
23
 10
12.0000
 20
17.0000
 30
0.0000
  0
POLYLINE
  8
21
 66
1
 10
0.0000
 20
0.0000
 30
0.0000
 40
0.0000
 41
0.0000
 70
1
  0
VERTEX
  8
21
 10
17.4793
 20
18.9635
 30
0.0000
  0
VERTEX
  8
21
 10
14.6793
 20
22.4635
 30
0.0000
 42
1.0000
  0
VERTEX
  8
21
 10
14.5207
 20
22.3365
 30
0.0000
  0
VERTEX
  8
21
 10
17.3207
 20
18.8365
 30
0.0000
 42
1.0000
  0
SEQEND
  8
0
  0
POLYLINE
  8
51
 66
1
 10
0.0000
 20
0.0000
 30
0.0000
 40
0.0000
 41
0.0000
 70
1
  0
VERTEX
  8
51
 10
14.6000
 20
22.5016
 30
0.0000
  0
VERTEX
  8
51
 10
9.4000
 20
22.5016
 30
0.0000
 42
1.0000
  0
VERTEX
  8
51
 10
9.4000
 20
22.2984
 30
0.0000
  0
VERTEX
  8
51
 10
14.6000
 20
22.2984
 30
0.0000
 42
1.0000
  0
SEQEND
  8
0
  0
POLYLINE
  8
21
 66
1
 10
0.0000
 20
0.0000
 30
0.0000
 40
0.0000
 41
0.0000
 70
1
  0
VERTEX
  8
21
 10
9.3207
 20
22.4635
 30
0.0000
  0
VERTEX
  8
21
 10
6.5207
 20
18.9635
 30
0.0000
 42
1.0000
  0
VERTEX
  8
21
 10
6.6793
 20
18.8365
 30
0.0000
  0
VERTEX
  8
21
 10
9.4793
 20
22.3365
 30
0.0000
 42
1.0000
  0
SEQEND
  8
0
  0
POLYLINE
  8
21
 66
1
 10
0.0000
 20
0.0000
 30
0.0000
 40
0.0000
 41
0.0000
 70
1
  0
VERTEX
  8
21
 10
6.4984
 20
18.9000
 30
0.0000
  0
VERTEX
  8
21
 10
6.4984
 20
11.4000
 30
0.0000
 42
1.0000
  0
VERTEX
  8
21
 10
6.7016
 20
11.4000
 30
0.0000
  0
VERTEX
  8
21
 10
6.7016
 20
18.9000
 30
0.0000
 42
1.0000
  0
SEQEND
  8
0
  0
POLYLINE
  8
21
 66
1
 10
0.0000
 20
0.0000
 30
0.0000
 40
0.0000
 41
0.0000
 70
1
  0
VERTEX
  8
21
 10
6.5282
 20
11.3282
 30
0.0000
  0
VERTEX
  8
21
 10
7.3282
 20
10.5282
 30
0.0000
 42
1.0000
  0
VERTEX
  8
21
 10
7.4718
 20
10.6718
 30
0.0000
  0
VERTEX
  8
21
 10
6.6718
 20
11.4718
 30
0.0000
 42
1.0000
  0
SEQEND
  8
0
  0
POLYLINE
  8
21
 66
1
 10
0.0000
 20
0.0000
 30
0.0000
 40
0.0000
 41
0.0000
 70
1
  0
VERTEX
  8
21
 10
7.4000
 20
10.4984
 30
0.0000
  0
VERTEX
  8
21
 10
16.6000
 20
10.4984
 30
0.0000
 42
1.0000
  0
VERTEX
  8
21
 10
16.6000
 20
10.7016
 30
0.0000
  0
VERTEX
  8
21
 10
7.4000
 20
10.7016
 30
0.0000
 42
1.0000
  0
SEQEND
  8
0
  0
POLYLINE
  8
21
 66
1
 10
0.0000
 20
0.0000
 30
0.0000
 40
0.0000
 41
0.0000
 70
1
  0
VERTEX
  8
21
 10
16.6718
 20
10.5282
 30
0.0000
  0
VERTEX
  8
21
 10
17.4718
 20
11.3282
 30
0.0000
 42
1.0000
  0
VERTEX
  8
21
 10
17.3282
 20
11.4718
 30
0.0000
  0
VERTEX
  8
21
 10
16.5282
 20
10.6718
 30
0.0000
 42
1.0000
  0
SEQEND
  8
0
  0
POLYLINE
  8
21
 66
1
 10
0.0000
 20
0.0000
 30
0.0000
 40
0.0000
 41
0.0000
 70
1
  0
VERTEX
  8
21
 10
17.5016
 20
11.4000
 30
0.0000
  0
VERTEX
  8
21
 10
17.5016
 20
18.9000
 30
0.0000
 42
1.0000
  0
VERTEX
  8
21
 10
17.2984
 20
18.9000
 30
0.0000
  0
VERTEX
  8
21
 10
17.2984
 20
11.4000
 30
0.0000
 42
1.0000
  0
SEQEND
  8
0
  0
POLYLINE
  8
51
 66
1
 10
0.0000
 20
0.0000
 30
0.0000
 40
0.0000
 41
0.0000
 70
1
  0
VERTEX
  8
51
 10
10.3629
 20
17.9490
 30
0.0000
 42
1.0000
  0
VERTEX
  8
51
 10
10.1871
 20
18.0510
 30
0.0000
 42
1.7356
  0
VERTEX
  8
51
 10
13.8129
 20
18.0510
 30
0.0000
 42
1.0000
  0
VERTEX
  8
51
 10
13.6371
 20
17.9490
 30
0.0000
 42
-1.7356
  0
SEQEND
  8
0
  0
POLYLINE
  8
51
 66
1
 10
0.0000
 20
0.0000
 30
0.0000
 40
0.0000
 41
0.0000
 70
1
  0
VERTEX
  8
51
 10
10.2750
 20
17.8984
 30
0.0000
  0
VERTEX
  8
51
 10
13.7250
 20
17.8984
 30
0.0000
 42
1.0000
  0
VERTEX
  8
51
 10
13.7250
 20
18.1016
 30
0.0000
  0
VERTEX
  8
51
 10
10.2750
 20
18.1016
 30
0.0000
 42
1.0000
  0
SEQEND
  8
0
  0
ARC
  8
20
 10
7.7500
 20
11.8750
 30
0.0000
 40
0.5500
 50
0.0000
 51
180.0000
  0
LINE
  8
20
 10
8.3000
 20
11.8750
 30
0.0000
 11
8.3000
 21
11.1750
 31
0.0000
  0
ARC
  8
20
 10
7.7500
 20
11.1750
 30
0.0000
 40
0.5500
 50
180.0000
 51
0.0000
  0
LINE
  8
20
 10
7.2000
 20
11.1750
 30
0.0000
 11
7.2000
 21
11.8750
 31
0.0000
  0
ARC
  8
20
 10
16.2500
 20
11.8750
 30
0.0000
 40
0.5500
 50
0.0000
 51
180.0000
  0
LINE
  8
20
 10
16.8000
 20
11.8750
 30
0.0000
 11
16.8000
 21
11.1750
 31
0.0000
  0
ARC
  8
20
 10
16.2500
 20
11.1750
 30
0.0000
 40
0.5500
 50
180.0000
 51
0.0000
  0
LINE
  8
20
 10
15.7000
 20
11.1750
 30
0.0000
 11
15.7000
 21
11.8750
 31
0.0000
  0
POLYLINE
  8
25
 66
1
 10
0.0000
 20
0.0000
 30
0.0000
 40
0.0000
 41
0.0000
 70
1
  0
VERTEX
  8
25
 10
4.1641
 20
13.1347
 30
0.0000
  0
VERTEX
  8
25
 10
3.8929
 20
12.8636
 30
0.0000
 42
1.0000
  0
VERTEX
  8
25
 10
4.0007
 20
12.7558
 30
0.0000
  0
VERTEX
  8
25
 10
4.2719
 20
13.0270
 30
0.0000
 42
1.0000
  0
SEQEND
  8
0
  0
POLYLINE
  8
25
 66
1
 10
0.0000
 20
0.0000
 30
0.0000
 40
0.0000
 41
0.0000
 70
1
  0
VERTEX
  8
25
 10
3.8706
 20
12.8097
 30
0.0000
  0
VERTEX
  8
25
 10
3.8706
 20
12.2674
 30
0.0000
 42
1.0000
  0
VERTEX
  8
25
 10
4.0230
 20
12.2674
 30
0.0000
  0
VERTEX
  8
25
 10
4.0230
 20
12.8097
 30
0.0000
 42
1.0000
  0
SEQEND
  8
0
  0
POLYLINE
  8
25
 66
1
 10
0.0000
 20
0.0000
 30
0.0000
 40
0.0000
 41
0.0000
 70
1
  0
VERTEX
  8
25
 10
3.8929
 20
12.2135
 30
0.0000
  0
VERTEX
  8
25
 10
4.1641
 20
11.9423
 30
0.0000
 42
1.0000
  0
VERTEX
  8
25
 10
4.2719
 20
12.0501
 30
0.0000
  0
VERTEX
  8
25
 10
4.0007
 20
12.3212
 30
0.0000
 42
1.0000
  0
SEQEND
  8
0
  0
POLYLINE
  8
25
 66
1
 10
0.0000
 20
0.0000
 30
0.0000
 40
0.0000
 41
0.0000
 70
1
  0
VERTEX
  8
25
 10
4.2180
 20
11.9200
 30
0.0000
  0
VERTEX
  8
25
 10
4.4891
 20
11.9200
 30
0.0000
 42
1.0000
  0
VERTEX
  8
25
 10
4.4891
 20
12.0724
 30
0.0000
  0
VERTEX
  8
25
 10
4.2180
 20
12.0724
 30
0.0000
 42
1.0000
  0
SEQEND
  8
0
  0
POLYLINE
  8
25
 66
1
 10
0.0000
 20
0.0000
 30
0.0000
 40
0.0000
 41
0.0000
 70
1
  0
VERTEX
  8
25
 10
4.5430
 20
11.9423
 30
0.0000
  0
VERTEX
  8
25
 10
4.8142
 20
12.2135
 30
0.0000
 42
1.0000
  0
VERTEX
  8
25
 10
4.7064
 20
12.3212
 30
0.0000
  0
VERTEX
  8
25
 10
4.4353
 20
12.0501
 30
0.0000
 42
1.0000
  0
SEQEND
  8
0
  0
POLYLINE
  8
25
 66
1
 10
0.0000
 20
0.0000
 30
0.0000
 40
0.0000
 41
0.0000
 70
1
  0
VERTEX
  8
25
 10
4.8365
 20
12.2674
 30
0.0000
  0
VERTEX
  8
25
 10
4.8365
 20
12.8097
 30
0.0000
 42
1.0000
  0
VERTEX
  8
25
 10
4.6841
 20
12.8097
 30
0.0000
  0
VERTEX
  8
25
 10
4.6841
 20
12.2674
 30
0.0000
 42
1.0000
  0
SEQEND
  8
0
  0
POLYLINE
  8
25
 66
1
 10
0.0000
 20
0.0000
 30
0.0000
 40
0.0000
 41
0.0000
 70
1
  0
VERTEX
  8
25
 10
4.8142
 20
12.7558
 30
0.0000
  0
VERTEX
  8
25
 10
5.0854
 20
13.0270
 30
0.0000
 42
1.0000
  0
VERTEX
  8
25
 10
4.9776
 20
13.1347
 30
0.0000
  0
VERTEX
  8
25
 10
4.7064
 20
12.8636
 30
0.0000
 42
1.0000
  0
SEQEND
  8
0
  0
POLYLINE
  8
25
 66
1
 10
0.0000
 20
0.0000
 30
0.0000
 40
0.0000
 41
0.0000
 70
1
  0
VERTEX
  8
25
 10
5.0315
 20
13.0047
 30
0.0000
  0
VERTEX
  8
25
 10
5.3026
 20
13.0047
 30
0.0000
 42
1.0000
  0
VERTEX
  8
25
 10
5.3026
 20
13.1571
 30
0.0000
  0
VERTEX
  8
25
 10
5.0315
 20
13.1571
 30
0.0000
 42
1.0000
  0
SEQEND
  8
0
  0
POLYLINE
  8
25
 66
1
 10
0.0000
 20
0.0000
 30
0.0000
 40
0.0000
 41
0.0000
 70
1
  0
VERTEX
  8
25
 10
5.2488
 20
13.0270
 30
0.0000
  0
VERTEX
  8
25
 10
5.5199
 20
12.7558
 30
0.0000
 42
1.0000
  0
VERTEX
  8
25
 10
5.6277
 20
12.8636
 30
0.0000
  0
VERTEX
  8
25
 10
5.3565
 20
13.1347
 30
0.0000
 42
1.0000
  0
SEQEND
  8
0
  0
POLYLINE
  8
25
 66
1
 10
0.0000
 20
0.0000
 30
0.0000
 40
0.0000
 41
0.0000
 70
1
  0
VERTEX
  8
25
 10
5.4976
 20
12.8097
 30
0.0000
  0
VERTEX
  8
25
 10
5.4976
 20
12.2674
 30
0.0000
 42
1.0000
  0
VERTEX
  8
25
 10
5.6500
 20
12.2674
 30
0.0000
  0
VERTEX
  8
25
 10
5.6500
 20
12.8097
 30
0.0000
 42
1.0000
  0
SEQEND
  8
0
  0
POLYLINE
  8
25
 66
1
 10
0.0000
 20
0.0000
 30
0.0000
 40
0.0000
 41
0.0000
 70
1
  0
VERTEX
  8
25
 10
5.5199
 20
12.3212
 30
0.0000
  0
VERTEX
  8
25
 10
5.2488
 20
12.0501
 30
0.0000
 42
1.0000
  0
VERTEX
  8
25
 10
5.3565
 20
11.9423
 30
0.0000
  0
VERTEX
  8
25
 10
5.6277
 20
12.2135
 30
0.0000
 42
1.0000
  0
SEQEND
  8
0
  0
POLYLINE
  8
25
 66
1
 10
0.0000
 20
0.0000
 30
0.0000
 40
0.0000
 41
0.0000
 70
1
  0
VERTEX
  8
25
 10
5.5738
 20
13.7096
 30
0.0000
  0
VERTEX
  8
25
 10
3.9468
 20
13.7096
 30
0.0000
 42
1.0000
  0
VERTEX
  8
25
 10
3.9468
 20
13.5572
 30
0.0000
  0
VERTEX
  8
25
 10
5.5738
 20
13.5572
 30
0.0000
 42
1.0000
  0
SEQEND
  8
0
  0
POLYLINE
  8
25
 66
1
 10
0.0000
 20
0.0000
 30
0.0000
 40
0.0000
 41
0.0000
 70
1
  0
VERTEX
  8
25
 10
3.9891
 20
13.5700
 30
0.0000
  0
VERTEX
  8
25
 10
5.6161
 20
14.6546
 30
0.0000
 42
1.0000
  0
VERTEX
  8
25
 10
5.5315
 20
14.7814
 30
0.0000
  0
VERTEX
  8
25
 10
3.9045
 20
13.6968
 30
0.0000
 42
1.0000
  0
SEQEND
  8
0
  0
POLYLINE
  8
25
 66
1
 10
0.0000
 20
0.0000
 30
0.0000
 40
0.0000
 41
0.0000
 70
1
  0
VERTEX
  8
25
 10
5.5738
 20
14.7942
 30
0.0000
  0
VERTEX
  8
25
 10
3.9468
 20
14.7942
 30
0.0000
 42
1.0000
  0
VERTEX
  8
25
 10
3.9468
 20
14.6418
 30
0.0000
  0
VERTEX
  8
25
 10
5.5738
 20
14.6418
 30
0.0000
 42
1.0000
  0
SEQEND
  8
0
  0
POLYLINE
  8
25
 66
1
 10
0.0000
 20
0.0000
 30
0.0000
 40
0.0000
 41
0.0000
 70
1
  0
VERTEX
  8
25
 10
4.5430
 20
15.3244
 30
0.0000
  0
VERTEX
  8
25
 10
4.0007
 20
15.8667
 30
0.0000
 42
1.0000
  0
VERTEX
  8
25
 10
3.8929
 20
15.7590
 30
0.0000
  0
VERTEX
  8
25
 10
4.4353
 20
15.2166
 30
0.0000
 42
1.0000
  0
SEQEND
  8
0
  0
POLYLINE
  8
25
 66
1
 10
0.0000
 20
0.0000
 30
0.0000
 40
0.0000
 41
0.0000
 70
1
  0
VERTEX
  8
25
 10
3.9468
 20
15.7366
 30
0.0000
  0
VERTEX
  8
25
 10
5.5738
 20
15.7366
 30
0.0000
 42
1.0000
  0
VERTEX
  8
25
 10
5.5738
 20
15.8890
 30
0.0000
  0
VERTEX
  8
25
 10
3.9468
 20
15.8890
 30
0.0000
 42
1.0000
  0
SEQEND
  8
0
  0
POLYLINE
  8
25
 66
1
 10
0.0000
 20
0.0000
 30
0.0000
 40
0.0000
 41
0.0000
 70
1
  0
VERTEX
  8
25
 10
5.6500
 20
15.2705
 30
0.0000
  0
VERTEX
  8
25
 10
5.6500
 20
16.3552
 30
0.0000
 42
1.0000
  0
VERTEX
  8
25
 10
5.4976
 20
16.3552
 30
0.0000
  0
VERTEX
  8
25
 10
5.4976
 20
15.2705
 30
0.0000
 42
1.0000
  0
SEQEND
  8
0
  0
POLYLINE
  8
27
 66
1
 10
0.0000
 20
0.0000
 30
0.0000
 40
0.0000
 41
0.0000
 70
1
  0
VERTEX
  8
27
 10
18.1341
 20
13.1347
 30
0.0000
  0
VERTEX
  8
27
 10
17.8629
 20
12.8636
 30
0.0000
 42
1.0000
  0
VERTEX
  8
27
 10
17.9707
 20
12.7558
 30
0.0000
  0
VERTEX
  8
27
 10
18.2419
 20
13.0270
 30
0.0000
 42
1.0000
  0
SEQEND
  8
0
  0
POLYLINE
  8
27
 66
1
 10
0.0000
 20
0.0000
 30
0.0000
 40
0.0000
 41
0.0000
 70
1
  0
VERTEX
  8
27
 10
17.8406
 20
12.8097
 30
0.0000
  0
VERTEX
  8
27
 10
17.8406
 20
12.2674
 30
0.0000
 42
1.0000
  0
VERTEX
  8
27
 10
17.9930
 20
12.2674
 30
0.0000
  0
VERTEX
  8
27
 10
17.9930
 20
12.8097
 30
0.0000
 42
1.0000
  0
SEQEND
  8
0
  0
POLYLINE
  8
27
 66
1
 10
0.0000
 20
0.0000
 30
0.0000
 40
0.0000
 41
0.0000
 70
1
  0
VERTEX
  8
27
 10
17.8629
 20
12.2135
 30
0.0000
  0
VERTEX
  8
27
 10
18.1341
 20
11.9423
 30
0.0000
 42
1.0000
  0
VERTEX
  8
27
 10
18.2419
 20
12.0501
 30
0.0000
  0
VERTEX
  8
27
 10
17.9707
 20
12.3212
 30
0.0000
 42
1.0000
  0
SEQEND
  8
0
  0
POLYLINE
  8
27
 66
1
 10
0.0000
 20
0.0000
 30
0.0000
 40
0.0000
 41
0.0000
 70
1
  0
VERTEX
  8
27
 10
18.1880
 20
11.9200
 30
0.0000
  0
VERTEX
  8
27
 10
18.4591
 20
11.9200
 30
0.0000
 42
1.0000
  0
VERTEX
  8
27
 10
18.4591
 20
12.0724
 30
0.0000
  0
VERTEX
  8
27
 10
18.1880
 20
12.0724
 30
0.0000
 42
1.0000
  0
SEQEND
  8
0
  0
POLYLINE
  8
27
 66
1
 10
0.0000
 20
0.0000
 30
0.0000
 40
0.0000
 41
0.0000
 70
1
  0
VERTEX
  8
27
 10
18.5130
 20
11.9423
 30
0.0000
  0
VERTEX
  8
27
 10
18.7842
 20
12.2135
 30
0.0000
 42
1.0000
  0
VERTEX
  8
27
 10
18.6764
 20
12.3212
 30
0.0000
  0
VERTEX
  8
27
 10
18.4053
 20
12.0501
 30
0.0000
 42
1.0000
  0
SEQEND
  8
0
  0
POLYLINE
  8
27
 66
1
 10
0.0000
 20
0.0000
 30
0.0000
 40
0.0000
 41
0.0000
 70
1
  0
VERTEX
  8
27
 10
18.8065
 20
12.2674
 30
0.0000
  0
VERTEX
  8
27
 10
18.8065
 20
12.8097
 30
0.0000
 42
1.0000
  0
VERTEX
  8
27
 10
18.6541
 20
12.8097
 30
0.0000
  0
VERTEX
  8
27
 10
18.6541
 20
12.2674
 30
0.0000
 42
1.0000
  0
SEQEND
  8
0
  0
POLYLINE
  8
27
 66
1
 10
0.0000
 20
0.0000
 30
0.0000
 40
0.0000
 41
0.0000
 70
1
  0
VERTEX
  8
27
 10
18.7842
 20
12.7558
 30
0.0000
  0
VERTEX
  8
27
 10
19.0554
 20
13.0270
 30
0.0000
 42
1.0000
  0
VERTEX
  8
27
 10
18.9476
 20
13.1347
 30
0.0000
  0
VERTEX
  8
27
 10
18.6764
 20
12.8636
 30
0.0000
 42
1.0000
  0
SEQEND
  8
0
  0
POLYLINE
  8
27
 66
1
 10
0.0000
 20
0.0000
 30
0.0000
 40
0.0000
 41
0.0000
 70
1
  0
VERTEX
  8
27
 10
19.0015
 20
13.0047
 30
0.0000
  0
VERTEX
  8
27
 10
19.2726
 20
13.0047
 30
0.0000
 42
1.0000
  0
VERTEX
  8
27
 10
19.2726
 20
13.1571
 30
0.0000
  0
VERTEX
  8
27
 10
19.0015
 20
13.1571
 30
0.0000
 42
1.0000
  0
SEQEND
  8
0
  0
POLYLINE
  8
27
 66
1
 10
0.0000
 20
0.0000
 30
0.0000
 40
0.0000
 41
0.0000
 70
1
  0
VERTEX
  8
27
 10
19.2188
 20
13.0270
 30
0.0000
  0
VERTEX
  8
27
 10
19.4899
 20
12.7558
 30
0.0000
 42
1.0000
  0
VERTEX
  8
27
 10
19.5977
 20
12.8636
 30
0.0000
  0
VERTEX
  8
27
 10
19.3265
 20
13.1347
 30
0.0000
 42
1.0000
  0
SEQEND
  8
0
  0
POLYLINE
  8
27
 66
1
 10
0.0000
 20
0.0000
 30
0.0000
 40
0.0000
 41
0.0000
 70
1
  0
VERTEX
  8
27
 10
19.4676
 20
12.8097
 30
0.0000
  0
VERTEX
  8
27
 10
19.4676
 20
12.2674
 30
0.0000
 42
1.0000
  0
VERTEX
  8
27
 10
19.6200
 20
12.2674
 30
0.0000
  0
VERTEX
  8
27
 10
19.6200
 20
12.8097
 30
0.0000
 42
1.0000
  0
SEQEND
  8
0
  0
POLYLINE
  8
27
 66
1
 10
0.0000
 20
0.0000
 30
0.0000
 40
0.0000
 41
0.0000
 70
1
  0
VERTEX
  8
27
 10
19.4899
 20
12.3212
 30
0.0000
  0
VERTEX
  8
27
 10
19.2188
 20
12.0501
 30
0.0000
 42
1.0000
  0
VERTEX
  8
27
 10
19.3265
 20
11.9423
 30
0.0000
  0
VERTEX
  8
27
 10
19.5977
 20
12.2135
 30
0.0000
 42
1.0000
  0
SEQEND
  8
0
  0
POLYLINE
  8
27
 66
1
 10
0.0000
 20
0.0000
 30
0.0000
 40
0.0000
 41
0.0000
 70
1
  0
VERTEX
  8
27
 10
17.9168
 20
13.5572
 30
0.0000
  0
VERTEX
  8
27
 10
19.0015
 20
13.5572
 30
0.0000
 42
1.0000
  0
VERTEX
  8
27
 10
19.0015
 20
13.7096
 30
0.0000
  0
VERTEX
  8
27
 10
17.9168
 20
13.7096
 30
0.0000
 42
1.0000
  0
SEQEND
  8
0
  0
POLYLINE
  8
27
 66
1
 10
0.0000
 20
0.0000
 30
0.0000
 40
0.0000
 41
0.0000
 70
1
  0
VERTEX
  8
27
 10
19.0554
 20
13.5795
 30
0.0000
  0
VERTEX
  8
27
 10
19.5977
 20
14.1218
 30
0.0000
 42
1.0000
  0
VERTEX
  8
27
 10
19.4899
 20
14.2296
 30
0.0000
  0
VERTEX
  8
27
 10
18.9476
 20
13.6872
 30
0.0000
 42
1.0000
  0
SEQEND
  8
0
  0
POLYLINE
  8
27
 66
1
 10
0.0000
 20
0.0000
 30
0.0000
 40
0.0000
 41
0.0000
 70
1
  0
VERTEX
  8
27
 10
19.5977
 20
14.2296
 30
0.0000
  0
VERTEX
  8
27
 10
19.0554
 20
14.7719
 30
0.0000
 42
1.0000
  0
VERTEX
  8
27
 10
18.9476
 20
14.6641
 30
0.0000
  0
VERTEX
  8
27
 10
19.4899
 20
14.1218
 30
0.0000
 42
1.0000
  0
SEQEND
  8
0
  0
POLYLINE
  8
27
 66
1
 10
0.0000
 20
0.0000
 30
0.0000
 40
0.0000
 41
0.0000
 70
1
  0
VERTEX
  8
27
 10
19.0015
 20
14.7942
 30
0.0000
  0
VERTEX
  8
27
 10
17.9168
 20
14.7942
 30
0.0000
 42
1.0000
  0
VERTEX
  8
27
 10
17.9168
 20
14.6418
 30
0.0000
  0
VERTEX
  8
27
 10
19.0015
 20
14.6418
 30
0.0000
 42
1.0000
  0
SEQEND
  8
0
  0
POLYLINE
  8
27
 66
1
 10
0.0000
 20
0.0000
 30
0.0000
 40
0.0000
 41
0.0000
 70
1
  0
VERTEX
  8
27
 10
19.2726
 20
15.3467
 30
0.0000
  0
VERTEX
  8
27
 10
18.1880
 20
15.3467
 30
0.0000
 42
1.0000
  0
VERTEX
  8
27
 10
18.1880
 20
15.1943
 30
0.0000
  0
VERTEX
  8
27
 10
19.2726
 20
15.1943
 30
0.0000
 42
1.0000
  0
SEQEND
  8
0
  0
POLYLINE
  8
27
 66
1
 10
0.0000
 20
0.0000
 30
0.0000
 40
0.0000
 41
0.0000
 70
1
  0
VERTEX
  8
27
 10
18.2419
 20
15.3244
 30
0.0000
  0
VERTEX
  8
27
 10
17.9707
 20
15.5956
 30
0.0000
 42
1.0000
  0
VERTEX
  8
27
 10
17.8629
 20
15.4878
 30
0.0000
  0
VERTEX
  8
27
 10
18.1341
 20
15.2166
 30
0.0000
 42
1.0000
  0
SEQEND
  8
0
  0
POLYLINE
  8
27
 66
1
 10
0.0000
 20
0.0000
 30
0.0000
 40
0.0000
 41
0.0000
 70
1
  0
VERTEX
  8
27
 10
17.9930
 20
15.5417
 30
0.0000
  0
VERTEX
  8
27
 10
17.9930
 20
16.0840
 30
0.0000
 42
1.0000
  0
VERTEX
  8
27
 10
17.8406
 20
16.0840
 30
0.0000
  0
VERTEX
  8
27
 10
17.8406
 20
15.5417
 30
0.0000
 42
1.0000
  0
SEQEND
  8
0
  0
POLYLINE
  8
27
 66
1
 10
0.0000
 20
0.0000
 30
0.0000
 40
0.0000
 41
0.0000
 70
1
  0
VERTEX
  8
27
 10
17.9707
 20
16.0301
 30
0.0000
  0
VERTEX
  8
27
 10
18.2419
 20
16.3013
 30
0.0000
 42
1.0000
  0
VERTEX
  8
27
 10
18.1341
 20
16.4091
 30
0.0000
  0
VERTEX
  8
27
 10
17.8629
 20
16.1379
 30
0.0000
 42
1.0000
  0
SEQEND
  8
0
  0
POLYLINE
  8
27
 66
1
 10
0.0000
 20
0.0000
 30
0.0000
 40
0.0000
 41
0.0000
 70
1
  0
VERTEX
  8
27
 10
18.1880
 20
16.2790
 30
0.0000
  0
VERTEX
  8
27
 10
19.2726
 20
16.2790
 30
0.0000
 42
1.0000
  0
VERTEX
  8
27
 10
19.2726
 20
16.4314
 30
0.0000
  0
VERTEX
  8
27
 10
18.1880
 20
16.4314
 30
0.0000
 42
1.0000
  0
SEQEND
  8
0
  0
POLYLINE
  8
27
 66
1
 10
0.0000
 20
0.0000
 30
0.0000
 40
0.0000
 41
0.0000
 70
1
  0
VERTEX
  8
27
 10
19.2188
 20
16.3013
 30
0.0000
  0
VERTEX
  8
27
 10
19.4899
 20
16.0301
 30
0.0000
 42
1.0000
  0
VERTEX
  8
27
 10
19.5977
 20
16.1379
 30
0.0000
  0
VERTEX
  8
27
 10
19.3265
 20
16.4091
 30
0.0000
 42
1.0000
  0
SEQEND
  8
0
  0
POLYLINE
  8
27
 66
1
 10
0.0000
 20
0.0000
 30
0.0000
 40
0.0000
 41
0.0000
 70
1
  0
VERTEX
  8
27
 10
19.4676
 20
16.0840
 30
0.0000
  0
VERTEX
  8
27
 10
19.4676
 20
15.5417
 30
0.0000
 42
1.0000
  0
VERTEX
  8
27
 10
19.6200
 20
15.5417
 30
0.0000
  0
VERTEX
  8
27
 10
19.6200
 20
16.0840
 30
0.0000
 42
1.0000
  0
SEQEND
  8
0
  0
POLYLINE
  8
27
 66
1
 10
0.0000
 20
0.0000
 30
0.0000
 40
0.0000
 41
0.0000
 70
1
  0
VERTEX
  8
27
 10
19.4899
 20
15.5956
 30
0.0000
  0
VERTEX
  8
27
 10
19.2188
 20
15.3244
 30
0.0000
 42
1.0000
  0
VERTEX
  8
27
 10
19.3265
 20
15.2166
 30
0.0000
  0
VERTEX
  8
27
 10
19.5977
 20
15.4878
 30
0.0000
 42
1.0000
  0
SEQEND
  8
0
  0
POLYLINE
  8
27
 66
1
 10
0.0000
 20
0.0000
 30
0.0000
 40
0.0000
 41
0.0000
 70
1
  0
VERTEX
  8
27
 10
19.3265
 20
15.3244
 30
0.0000
  0
VERTEX
  8
27
 10
18.2419
 20
16.4091
 30
0.0000
 42
1.0000
  0
VERTEX
  8
27
 10
18.1341
 20
16.3013
 30
0.0000
  0
VERTEX
  8
27
 10
19.2188
 20
15.2166
 30
0.0000
 42
1.0000
  0
SEQEND
  8
0
  0
POLYLINE
  8
27
 66
1
 10
0.0000
 20
0.0000
 30
0.0000
 40
0.0000
 41
0.0000
 70
1
  0
VERTEX
  8
27
 10
18.5130
 20
16.9616
 30
0.0000
  0
VERTEX
  8
27
 10
17.9707
 20
17.5039
 30
0.0000
 42
1.0000
  0
VERTEX
  8
27
 10
17.8629
 20
17.3961
 30
0.0000
  0
VERTEX
  8
27
 10
18.4053
 20
16.8538
 30
0.0000
 42
1.0000
  0
SEQEND
  8
0
  0
POLYLINE
  8
27
 66
1
 10
0.0000
 20
0.0000
 30
0.0000
 40
0.0000
 41
0.0000
 70
1
  0
VERTEX
  8
27
 10
17.9168
 20
17.3738
 30
0.0000
  0
VERTEX
  8
27
 10
19.5438
 20
17.3738
 30
0.0000
 42
1.0000
  0
VERTEX
  8
27
 10
19.5438
 20
17.5262
 30
0.0000
  0
VERTEX
  8
27
 10
17.9168
 20
17.5262
 30
0.0000
 42
1.0000
  0
SEQEND
  8
0
  0
POLYLINE
  8
27
 66
1
 10
0.0000
 20
0.0000
 30
0.0000
 40
0.0000
 41
0.0000
 70
1
  0
VERTEX
  8
27
 10
19.6200
 20
16.9077
 30
0.0000
  0
VERTEX
  8
27
 10
19.6200
 20
17.9923
 30
0.0000
 42
1.0000
  0
VERTEX
  8
27
 10
19.4676
 20
17.9923
 30
0.0000
  0
VERTEX
  8
27
 10
19.4676
 20
16.9077
 30
0.0000
 42
1.0000
  0
SEQEND
  8
0
  0
POLYLINE
  8
27
 66
1
 10
0.0000
 20
0.0000
 30
0.0000
 40
0.0000
 41
0.0000
 70
1
  0
VERTEX
  8
27
 10
19.5438
 20
18.6210
 30
0.0000
  0
VERTEX
  8
27
 10
18.4591
 20
18.6210
 30
0.0000
 42
1.0000
  0
VERTEX
  8
27
 10
18.4591
 20
18.4686
 30
0.0000
  0
VERTEX
  8
27
 10
19.5438
 20
18.4686
 30
0.0000
 42
1.0000
  0
SEQEND
  8
0
  0
POLYLINE
  8
27
 66
1
 10
0.0000
 20
0.0000
 30
0.0000
 40
0.0000
 41
0.0000
 70
1
  0
VERTEX
  8
27
 10
18.5130
 20
18.5987
 30
0.0000
  0
VERTEX
  8
27
 10
17.9707
 20
19.1410
 30
0.0000
 42
1.0000
  0
VERTEX
  8
27
 10
17.8629
 20
19.0333
 30
0.0000
  0
VERTEX
  8
27
 10
18.4053
 20
18.4909
 30
0.0000
 42
1.0000
  0
SEQEND
  8
0
  0
POLYLINE
  8
27
 66
1
 10
0.0000
 20
0.0000
 30
0.0000
 40
0.0000
 41
0.0000
 70
1
  0
VERTEX
  8
27
 10
17.9707
 20
19.0333
 30
0.0000
  0
VERTEX
  8
27
 10
18.5130
 20
19.5756
 30
0.0000
 42
1.0000
  0
VERTEX
  8
27
 10
18.4053
 20
19.6834
 30
0.0000
  0
VERTEX
  8
27
 10
17.8629
 20
19.1410
 30
0.0000
 42
1.0000
  0
SEQEND
  8
0
  0
POLYLINE
  8
27
 66
1
 10
0.0000
 20
0.0000
 30
0.0000
 40
0.0000
 41
0.0000
 70
1
  0
VERTEX
  8
27
 10
18.4591
 20
19.5533
 30
0.0000
  0
VERTEX
  8
27
 10
19.5438
 20
19.5533
 30
0.0000
 42
1.0000
  0
VERTEX
  8
27
 10
19.5438
 20
19.7057
 30
0.0000
  0
VERTEX
  8
27
 10
18.4591
 20
19.7057
 30
0.0000
 42
1.0000
  0
SEQEND
  8
0
  0
POLYLINE
  8
27
 66
1
 10
0.0000
 20
0.0000
 30
0.0000
 40
0.0000
 41
0.0000
 70
1
  0
VERTEX
  8
27
 10
18.8065
 20
18.5448
 30
0.0000
  0
VERTEX
  8
27
 10
18.8065
 20
19.6295
 30
0.0000
 42
1.0000
  0
VERTEX
  8
27
 10
18.6541
 20
19.6295
 30
0.0000
  0
VERTEX
  8
27
 10
18.6541
 20
18.5448
 30
0.0000
 42
1.0000
  0
SEQEND
  8
0
  0
INSERT
  8
51
  2
RECT
 10
11.9875
 20
9.6125
 30
0.0000
 41
0.9750
 42
1.9250
 43
1.0000
 50
0.0000
  0
INSERT
  8
51
  2
RECT
 10
9.4875
 20
9.6125
 30
0.0000
 41
0.9750
 42
1.9250
 43
1.0000
 50
0.0000
  0
INSERT
  8
51
  2
RECT
 10
14.4875
 20
9.6125
 30
0.0000
 41
0.9750
 42
1.9250
 43
1.0000
 50
0.0000
  0
INSERT
  8
51
  2
RECT
 10
12.0125
 20
23.1375
 30
0.0000
 41
0.9750
 42
1.5750
 43
1.0000
 50
180.0000
  0
CIRCLE
  8
20
 10
12.0000
 20
17.0000
 30
0.0000
 40
2.9000
  0
CIRCLE
  8
20
 10
16.2500
 20
11.5000
 30
0.0000
 40
0.5500
  0
CIRCLE
  8
20
 10
7.7500
 20
11.5000
 30
0.0000
 40
0.5500
  0
INSERT
  8
1
  2
RECT
 10
9.5000
 20
9.3000
 30
0.0000
 41
1.8000
 42
2.0000
 43
1.0000
 50
0.0000
  0
INSERT
  8
1
  2
RECT
 10
12.0000
 20
9.3000
 30
0.0000
 41
1.8000
 42
2.0000
 43
1.0000
 50
0.0000
  0
INSERT
  8
1
  2
RECT
 10
12.0000
 20
23.2000
 30
0.0000
 41
1.8000
 42
2.0000
 43
1.0000
 50
0.0000
  0
INSERT
  8
1
  2
RECT
 10
14.5000
 20
9.3000
 30
0.0000
 41
1.8000
 42
2.0000
 43
1.0000
 50
0.0000
  0
POINT
  8
23
 10
12.0000
 20
2.0000
 30
0.0000
  0
POLYLINE
  8
21
 66
1
 10
0.0000
 20
0.0000
 30
0.0000
 40
0.0000
 41
0.0000
 70
1
  0
VERTEX
  8
21
 10
8.8250
 20
3.1938
 30
0.0000
  0
VERTEX
  8
21
 10
10.0950
 20
3.1938
 30
0.0000
 42
1.0000
  0
VERTEX
  8
21
 10
10.0950
 20
3.3462
 30
0.0000
  0
VERTEX
  8
21
 10
8.8250
 20
3.3462
 30
0.0000
 42
1.0000
  0
SEQEND
  8
0
  0
POLYLINE
  8
21
 66
1
 10
0.0000
 20
0.0000
 30
0.0000
 40
0.0000
 41
0.0000
 70
1
  0
VERTEX
  8
21
 10
10.0411
 20
3.2161
 30
0.0000
  0
VERTEX
  8
21
 10
10.6761
 20
2.5811
 30
0.0000
 42
1.0000
  0
VERTEX
  8
21
 10
10.7839
 20
2.6889
 30
0.0000
  0
VERTEX
  8
21
 10
10.1489
 20
3.3239
 30
0.0000
 42
1.0000
  0
SEQEND
  8
0
  0
POLYLINE
  8
21
 66
1
 10
0.0000
 20
0.0000
 30
0.0000
 40
0.0000
 41
0.0000
 70
1
  0
VERTEX
  8
21
 10
10.6761
 20
1.4189
 30
0.0000
  0
VERTEX
  8
21
 10
10.0411
 20
0.7839
 30
0.0000
 42
1.0000
  0
VERTEX
  8
21
 10
10.1489
 20
0.6761
 30
0.0000
  0
VERTEX
  8
21
 10
10.7839
 20
1.3111
 30
0.0000
 42
1.0000
  0
SEQEND
  8
0
  0
POLYLINE
  8
21
 66
1
 10
0.0000
 20
0.0000
 30
0.0000
 40
0.0000
 41
0.0000
 70
1
  0
VERTEX
  8
21
 10
10.7839
 20
2.5811
 30
0.0000
  0
VERTEX
  8
21
 10
11.4189
 20
3.2161
 30
0.0000
 42
1.0000
  0
VERTEX
  8
21
 10
11.3111
 20
3.3239
 30
0.0000
  0
VERTEX
  8
21
 10
10.6761
 20
2.6889
 30
0.0000
 42
1.0000
  0
SEQEND
  8
0
  0
POLYLINE
  8
21
 66
1
 10
0.0000
 20
0.0000
 30
0.0000
 40
0.0000
 41
0.0000
 70
1
  0
VERTEX
  8
21
 10
11.3650
 20
3.1938
 30
0.0000
  0
VERTEX
  8
21
 10
12.6350
 20
3.1938
 30
0.0000
 42
1.0000
  0
VERTEX
  8
21
 10
12.6350
 20
3.3462
 30
0.0000
  0
VERTEX
  8
21
 10
11.3650
 20
3.3462
 30
0.0000
 42
1.0000
  0
SEQEND
  8
0
  0
POLYLINE
  8
21
 66
1
 10
0.0000
 20
0.0000
 30
0.0000
 40
0.0000
 41
0.0000
 70
1
  0
VERTEX
  8
21
 10
12.5811
 20
3.2161
 30
0.0000
  0
VERTEX
  8
21
 10
13.2161
 20
2.5811
 30
0.0000
 42
1.0000
  0
VERTEX
  8
21
 10
13.3239
 20
2.6889
 30
0.0000
  0
VERTEX
  8
21
 10
12.6889
 20
3.3239
 30
0.0000
 42
1.0000
  0
SEQEND
  8
0
  0
POLYLINE
  8
21
 66
1
 10
0.0000
 20
0.0000
 30
0.0000
 40
0.0000
 41
0.0000
 70
1
  0
VERTEX
  8
21
 10
13.2161
 20
1.4189
 30
0.0000
  0
VERTEX
  8
21
 10
12.5811
 20
0.7839
 30
0.0000
 42
1.0000
  0
VERTEX
  8
21
 10
12.6889
 20
0.6761
 30
0.0000
  0
VERTEX
  8
21
 10
13.3239
 20
1.3111
 30
0.0000
 42
1.0000
  0
SEQEND
  8
0
  0
POLYLINE
  8
21
 66
1
 10
0.0000
 20
0.0000
 30
0.0000
 40
0.0000
 41
0.0000
 70
1
  0
VERTEX
  8
21
 10
12.6350
 20
0.8062
 30
0.0000
  0
VERTEX
  8
21
 10
11.3650
 20
0.8062
 30
0.0000
 42
1.0000
  0
VERTEX
  8
21
 10
11.3650
 20
0.6538
 30
0.0000
  0
VERTEX
  8
21
 10
12.6350
 20
0.6538
 30
0.0000
 42
1.0000
  0
SEQEND
  8
0
  0
POLYLINE
  8
21
 66
1
 10
0.0000
 20
0.0000
 30
0.0000
 40
0.0000
 41
0.0000
 70
1
  0
VERTEX
  8
21
 10
11.4189
 20
0.7839
 30
0.0000
  0
VERTEX
  8
21
 10
10.7839
 20
1.4189
 30
0.0000
 42
1.0000
  0
VERTEX
  8
21
 10
10.6761
 20
1.3111
 30
0.0000
  0
VERTEX
  8
21
 10
11.3111
 20
0.6761
 30
0.0000
 42
1.0000
  0
SEQEND
  8
0
  0
POLYLINE
  8
21
 66
1
 10
0.0000
 20
0.0000
 30
0.0000
 40
0.0000
 41
0.0000
 70
1
  0
VERTEX
  8
21
 10
8.1138
 20
2.6350
 30
0.0000
  0
VERTEX
  8
21
 10
8.1138
 20
1.3650
 30
0.0000
 42
1.0000
  0
VERTEX
  8
21
 10
8.2662
 20
1.3650
 30
0.0000
  0
VERTEX
  8
21
 10
8.2662
 20
2.6350
 30
0.0000
 42
1.0000
  0
SEQEND
  8
0
  0
POLYLINE
  8
21
 66
1
 10
0.0000
 20
0.0000
 30
0.0000
 40
0.0000
 41
0.0000
 70
1
  0
VERTEX
  8
21
 10
8.7711
 20
3.3239
 30
0.0000
  0
VERTEX
  8
21
 10
8.1361
 20
2.6889
 30
0.0000
 42
1.0000
  0
VERTEX
  8
21
 10
8.2439
 20
2.5811
 30
0.0000
  0
VERTEX
  8
21
 10
8.8789
 20
3.2161
 30
0.0000
 42
1.0000
  0
SEQEND
  8
0
  0
POLYLINE
  8
21
 66
1
 10
0.0000
 20
0.0000
 30
0.0000
 40
0.0000
 41
0.0000
 70
1
  0
VERTEX
  8
21
 10
8.1361
 20
1.3111
 30
0.0000
  0
VERTEX
  8
21
 10
8.7711
 20
0.6761
 30
0.0000
 42
1.0000
  0
VERTEX
  8
21
 10
8.8789
 20
0.7839
 30
0.0000
  0
VERTEX
  8
21
 10
8.2439
 20
1.4189
 30
0.0000
 42
1.0000
  0
SEQEND
  8
0
  0
POLYLINE
  8
21
 66
1
 10
0.0000
 20
0.0000
 30
0.0000
 40
0.0000
 41
0.0000
 70
1
  0
VERTEX
  8
21
 10
10.0950
 20
0.8062
 30
0.0000
  0
VERTEX
  8
21
 10
8.8250
 20
0.8062
 30
0.0000
 42
1.0000
  0
VERTEX
  8
21
 10
8.8250
 20
0.6538
 30
0.0000
  0
VERTEX
  8
21
 10
10.0950
 20
0.6538
 30
0.0000
 42
1.0000
  0
SEQEND
  8
0
  0
POLYLINE
  8
21
 66
1
 10
0.0000
 20
0.0000
 30
0.0000
 40
0.0000
 41
0.0000
 70
1
  0
VERTEX
  8
21
 10
13.3239
 20
2.5811
 30
0.0000
  0
VERTEX
  8
21
 10
13.9589
 20
3.2161
 30
0.0000
 42
1.0000
  0
VERTEX
  8
21
 10
13.8511
 20
3.3239
 30
0.0000
  0
VERTEX
  8
21
 10
13.2161
 20
2.6889
 30
0.0000
 42
1.0000
  0
SEQEND
  8
0
  0
POLYLINE
  8
21
 66
1
 10
0.0000
 20
0.0000
 30
0.0000
 40
0.0000
 41
0.0000
 70
1
  0
VERTEX
  8
21
 10
13.9050
 20
3.1938
 30
0.0000
  0
VERTEX
  8
21
 10
15.1750
 20
3.1938
 30
0.0000
 42
1.0000
  0
VERTEX
  8
21
 10
15.1750
 20
3.3462
 30
0.0000
  0
VERTEX
  8
21
 10
13.9050
 20
3.3462
 30
0.0000
 42
1.0000
  0
SEQEND
  8
0
  0
POLYLINE
  8
21
 66
1
 10
0.0000
 20
0.0000
 30
0.0000
 40
0.0000
 41
0.0000
 70
1
  0
VERTEX
  8
21
 10
15.1211
 20
3.2161
 30
0.0000
  0
VERTEX
  8
21
 10
15.7561
 20
2.5811
 30
0.0000
 42
1.0000
  0
VERTEX
  8
21
 10
15.8639
 20
2.6889
 30
0.0000
  0
VERTEX
  8
21
 10
15.2289
 20
3.3239
 30
0.0000
 42
1.0000
  0
SEQEND
  8
0
  0
POLYLINE
  8
21
 66
1
 10
0.0000
 20
0.0000
 30
0.0000
 40
0.0000
 41
0.0000
 70
1
  0
VERTEX
  8
21
 10
15.7561
 20
1.4189
 30
0.0000
  0
VERTEX
  8
21
 10
15.1211
 20
0.7839
 30
0.0000
 42
1.0000
  0
VERTEX
  8
21
 10
15.2289
 20
0.6761
 30
0.0000
  0
VERTEX
  8
21
 10
15.8639
 20
1.3111
 30
0.0000
 42
1.0000
  0
SEQEND
  8
0
  0
POLYLINE
  8
21
 66
1
 10
0.0000
 20
0.0000
 30
0.0000
 40
0.0000
 41
0.0000
 70
1
  0
VERTEX
  8
21
 10
15.1750
 20
0.8062
 30
0.0000
  0
VERTEX
  8
21
 10
13.9050
 20
0.8062
 30
0.0000
 42
1.0000
  0
VERTEX
  8
21
 10
13.9050
 20
0.6538
 30
0.0000
  0
VERTEX
  8
21
 10
15.1750
 20
0.6538
 30
0.0000
 42
1.0000
  0
SEQEND
  8
0
  0
POLYLINE
  8
21
 66
1
 10
0.0000
 20
0.0000
 30
0.0000
 40
0.0000
 41
0.0000
 70
1
  0
VERTEX
  8
21
 10
13.9589
 20
0.7839
 30
0.0000
  0
VERTEX
  8
21
 10
13.3239
 20
1.4189
 30
0.0000
 42
1.0000
  0
VERTEX
  8
21
 10
13.2161
 20
1.3111
 30
0.0000
  0
VERTEX
  8
21
 10
13.8511
 20
0.6761
 30
0.0000
 42
1.0000
  0
SEQEND
  8
0
  0
POLYLINE
  8
21
 66
1
 10
0.0000
 20
0.0000
 30
0.0000
 40
0.0000
 41
0.0000
 70
1
  0
VERTEX
  8
21
 10
15.7338
 20
2.6350
 30
0.0000
  0
VERTEX
  8
21
 10
15.7338
 20
1.3650
 30
0.0000
 42
1.0000
  0
VERTEX
  8
21
 10
15.8862
 20
1.3650
 30
0.0000
  0
VERTEX
  8
21
 10
15.8862
 20
2.6350
 30
0.0000
 42
1.0000
  0
SEQEND
  8
0
  0
POLYLINE
  8
25
 66
1
 10
0.0000
 20
0.0000
 30
0.0000
 40
0.0000
 41
0.0000
 70
1
  0
VERTEX
  8
25
 10
9.0611
 20
4.7127
 30
0.0000
  0
VERTEX
  8
25
 10
8.8704
 20
4.9034
 30
0.0000
 42
1.0000
  0
VERTEX
  8
25
 10
8.7806
 20
4.8136
 30
0.0000
  0
VERTEX
  8
25
 10
8.9712
 20
4.6229
 30
0.0000
 42
1.0000
  0
SEQEND
  8
0
  0
POLYLINE
  8
25
 66
1
 10
0.0000
 20
0.0000
 30
0.0000
 40
0.0000
 41
0.0000
 70
1
  0
VERTEX
  8
25
 10
8.8255
 20
4.9220
 30
0.0000
  0
VERTEX
  8
25
 10
8.4442
 20
4.9220
 30
0.0000
 42
1.0000
  0
VERTEX
  8
25
 10
8.4442
 20
4.7950
 30
0.0000
  0
VERTEX
  8
25
 10
8.8255
 20
4.7950
 30
0.0000
 42
1.0000
  0
SEQEND
  8
0
  0
POLYLINE
  8
25
 66
1
 10
0.0000
 20
0.0000
 30
0.0000
 40
0.0000
 41
0.0000
 70
1
  0
VERTEX
  8
25
 10
8.3993
 20
4.9034
 30
0.0000
  0
VERTEX
  8
25
 10
8.2086
 20
4.7127
 30
0.0000
 42
1.0000
  0
VERTEX
  8
25
 10
8.2984
 20
4.6229
 30
0.0000
  0
VERTEX
  8
25
 10
8.4891
 20
4.8136
 30
0.0000
 42
1.0000
  0
SEQEND
  8
0
  0
POLYLINE
  8
25
 66
1
 10
0.0000
 20
0.0000
 30
0.0000
 40
0.0000
 41
0.0000
 70
1
  0
VERTEX
  8
25
 10
8.1900
 20
4.6678
 30
0.0000
  0
VERTEX
  8
25
 10
8.1900
 20
4.4771
 30
0.0000
 42
1.0000
  0
VERTEX
  8
25
 10
8.3170
 20
4.4771
 30
0.0000
  0
VERTEX
  8
25
 10
8.3170
 20
4.6678
 30
0.0000
 42
1.0000
  0
SEQEND
  8
0
  0
POLYLINE
  8
25
 66
1
 10
0.0000
 20
0.0000
 30
0.0000
 40
0.0000
 41
0.0000
 70
1
  0
VERTEX
  8
25
 10
8.2086
 20
4.4322
 30
0.0000
  0
VERTEX
  8
25
 10
8.3993
 20
4.2416
 30
0.0000
 42
1.0000
  0
VERTEX
  8
25
 10
8.4891
 20
4.3314
 30
0.0000
  0
VERTEX
  8
25
 10
8.2984
 20
4.5221
 30
0.0000
 42
1.0000
  0
SEQEND
  8
0
  0
POLYLINE
  8
25
 66
1
 10
0.0000
 20
0.0000
 30
0.0000
 40
0.0000
 41
0.0000
 70
1
  0
VERTEX
  8
25
 10
8.4442
 20
4.2230
 30
0.0000
  0
VERTEX
  8
25
 10
8.8255
 20
4.2230
 30
0.0000
 42
1.0000
  0
VERTEX
  8
25
 10
8.8255
 20
4.3500
 30
0.0000
  0
VERTEX
  8
25
 10
8.4442
 20
4.3500
 30
0.0000
 42
1.0000
  0
SEQEND
  8
0
  0
POLYLINE
  8
25
 66
1
 10
0.0000
 20
0.0000
 30
0.0000
 40
0.0000
 41
0.0000
 70
1
  0
VERTEX
  8
25
 10
8.7806
 20
4.2416
 30
0.0000
  0
VERTEX
  8
25
 10
8.9712
 20
4.0509
 30
0.0000
 42
1.0000
  0
VERTEX
  8
25
 10
9.0611
 20
4.1407
 30
0.0000
  0
VERTEX
  8
25
 10
8.8704
 20
4.3314
 30
0.0000
 42
1.0000
  0
SEQEND
  8
0
  0
POLYLINE
  8
25
 66
1
 10
0.0000
 20
0.0000
 30
0.0000
 40
0.0000
 41
0.0000
 70
1
  0
VERTEX
  8
25
 10
8.9527
 20
4.0958
 30
0.0000
  0
VERTEX
  8
25
 10
8.9527
 20
3.9052
 30
0.0000
 42
1.0000
  0
VERTEX
  8
25
 10
9.0796
 20
3.9052
 30
0.0000
  0
VERTEX
  8
25
 10
9.0796
 20
4.0958
 30
0.0000
 42
1.0000
  0
SEQEND
  8
0
  0
POLYLINE
  8
25
 66
1
 10
0.0000
 20
0.0000
 30
0.0000
 40
0.0000
 41
0.0000
 70
1
  0
VERTEX
  8
25
 10
8.9712
 20
3.9501
 30
0.0000
  0
VERTEX
  8
25
 10
8.7806
 20
3.7594
 30
0.0000
 42
1.0000
  0
VERTEX
  8
25
 10
8.8704
 20
3.6696
 30
0.0000
  0
VERTEX
  8
25
 10
9.0611
 20
3.8603
 30
0.0000
 42
1.0000
  0
SEQEND
  8
0
  0
POLYLINE
  8
25
 66
1
 10
0.0000
 20
0.0000
 30
0.0000
 40
0.0000
 41
0.0000
 70
1
  0
VERTEX
  8
25
 10
8.8255
 20
3.7780
 30
0.0000
  0
VERTEX
  8
25
 10
8.4442
 20
3.7780
 30
0.0000
 42
1.0000
  0
VERTEX
  8
25
 10
8.4442
 20
3.6510
 30
0.0000
  0
VERTEX
  8
25
 10
8.8255
 20
3.6510
 30
0.0000
 42
1.0000
  0
SEQEND
  8
0
  0
POLYLINE
  8
25
 66
1
 10
0.0000
 20
0.0000
 30
0.0000
 40
0.0000
 41
0.0000
 70
1
  0
VERTEX
  8
25
 10
8.4891
 20
3.7594
 30
0.0000
  0
VERTEX
  8
25
 10
8.2984
 20
3.9501
 30
0.0000
 42
1.0000
  0
VERTEX
  8
25
 10
8.2086
 20
3.8603
 30
0.0000
  0
VERTEX
  8
25
 10
8.3993
 20
3.6696
 30
0.0000
 42
1.0000
  0
SEQEND
  8
0
  0
POLYLINE
  8
25
 66
1
 10
0.0000
 20
0.0000
 30
0.0000
 40
0.0000
 41
0.0000
 70
1
  0
VERTEX
  8
25
 10
9.3594
 20
4.8585
 30
0.0000
  0
VERTEX
  8
25
 10
9.3594
 20
4.0958
 30
0.0000
 42
1.0000
  0
VERTEX
  8
25
 10
9.4864
 20
4.0958
 30
0.0000
  0
VERTEX
  8
25
 10
9.4864
 20
4.8585
 30
0.0000
 42
1.0000
  0
SEQEND
  8
0
  0
POLYLINE
  8
25
 66
1
 10
0.0000
 20
0.0000
 30
0.0000
 40
0.0000
 41
0.0000
 70
1
  0
VERTEX
  8
25
 10
9.3780
 20
4.0509
 30
0.0000
  0
VERTEX
  8
25
 10
9.7593
 20
3.6696
 30
0.0000
 42
1.0000
  0
VERTEX
  8
25
 10
9.8491
 20
3.7594
 30
0.0000
  0
VERTEX
  8
25
 10
9.4678
 20
4.1407
 30
0.0000
 42
1.0000
  0
SEQEND
  8
0
  0
POLYLINE
  8
25
 66
1
 10
0.0000
 20
0.0000
 30
0.0000
 40
0.0000
 41
0.0000
 70
1
  0
VERTEX
  8
25
 10
9.8491
 20
3.6696
 30
0.0000
  0
VERTEX
  8
25
 10
10.2304
 20
4.0509
 30
0.0000
 42
1.0000
  0
VERTEX
  8
25
 10
10.1406
 20
4.1407
 30
0.0000
  0
VERTEX
  8
25
 10
9.7593
 20
3.7594
 30
0.0000
 42
1.0000
  0
SEQEND
  8
0
  0
POLYLINE
  8
25
 66
1
 10
0.0000
 20
0.0000
 30
0.0000
 40
0.0000
 41
0.0000
 70
1
  0
VERTEX
  8
25
 10
10.2490
 20
4.0958
 30
0.0000
  0
VERTEX
  8
25
 10
10.2490
 20
4.8585
 30
0.0000
 42
1.0000
  0
VERTEX
  8
25
 10
10.1220
 20
4.8585
 30
0.0000
  0
VERTEX
  8
25
 10
10.1220
 20
4.0958
 30
0.0000
 42
1.0000
  0
SEQEND
  8
0
  0
POLYLINE
  8
25
 66
1
 10
0.0000
 20
0.0000
 30
0.0000
 40
0.0000
 41
0.0000
 70
1
  0
VERTEX
  8
25
 10
10.6372
 20
4.4322
 30
0.0000
  0
VERTEX
  8
25
 10
11.0185
 20
4.8136
 30
0.0000
 42
1.0000
  0
VERTEX
  8
25
 10
10.9287
 20
4.9034
 30
0.0000
  0
VERTEX
  8
25
 10
10.5474
 20
4.5221
 30
0.0000
 42
1.0000
  0
SEQEND
  8
0
  0
POLYLINE
  8
25
 66
1
 10
0.0000
 20
0.0000
 30
0.0000
 40
0.0000
 41
0.0000
 70
1
  0
VERTEX
  8
25
 10
10.9101
 20
4.8585
 30
0.0000
  0
VERTEX
  8
25
 10
10.9101
 20
3.7145
 30
0.0000
 42
1.0000
  0
VERTEX
  8
25
 10
11.0371
 20
3.7145
 30
0.0000
  0
VERTEX
  8
25
 10
11.0371
 20
4.8585
 30
0.0000
 42
1.0000
  0
SEQEND
  8
0
  0
POLYLINE
  8
25
 66
1
 10
0.0000
 20
0.0000
 30
0.0000
 40
0.0000
 41
0.0000
 70
1
  0
VERTEX
  8
25
 10
10.5923
 20
3.6510
 30
0.0000
  0
VERTEX
  8
25
 10
11.3549
 20
3.6510
 30
0.0000
 42
1.0000
  0
VERTEX
  8
25
 10
11.3549
 20
3.7780
 30
0.0000
  0
VERTEX
  8
25
 10
10.5923
 20
3.7780
 30
0.0000
 42
1.0000
  0
SEQEND
  8
0
  0
POLYLINE
  8
21
 66
1
 10
0.0000
 20
0.0000
 30
0.0000
 40
0.0000
 41
0.0000
 70
1
  0
VERTEX
  8
21
 10
7.0284
 20
2.1462
 30
0.0000
  0
VERTEX
  8
21
 10
7.4097
 20
2.5276
 30
0.0000
 42
1.0000
  0
VERTEX
  8
21
 10
7.3199
 20
2.6174
 30
0.0000
  0
VERTEX
  8
21
 10
6.9386
 20
2.2361
 30
0.0000
 42
1.0000
  0
SEQEND
  8
0
  0
POLYLINE
  8
21
 66
1
 10
0.0000
 20
0.0000
 30
0.0000
 40
0.0000
 41
0.0000
 70
1
  0
VERTEX
  8
21
 10
7.3013
 20
2.5725
 30
0.0000
  0
VERTEX
  8
21
 10
7.3013
 20
1.4285
 30
0.0000
 42
1.0000
  0
VERTEX
  8
21
 10
7.4283
 20
1.4285
 30
0.0000
  0
VERTEX
  8
21
 10
7.4283
 20
2.5725
 30
0.0000
 42
1.0000
  0
SEQEND
  8
0
  0
POLYLINE
  8
21
 66
1
 10
0.0000
 20
0.0000
 30
0.0000
 40
0.0000
 41
0.0000
 70
1
  0
VERTEX
  8
21
 10
6.9835
 20
1.3650
 30
0.0000
  0
VERTEX
  8
21
 10
7.7462
 20
1.3650
 30
0.0000
 42
1.0000
  0
VERTEX
  8
21
 10
7.7462
 20
1.4920
 30
0.0000
  0
VERTEX
  8
21
 10
6.9835
 20
1.4920
 30
0.0000
 42
1.0000
  0
SEQEND
  8
0
  0
INSERT
  8
51
  2
RECT
 10
12.0000
 20
2.0000
 30
0.0000
 41
0.5080
 42
0.5080
 43
1.0000
 50
0.0000
  0
INSERT
  8
51
  2
RECT
 10
9.4600
 20
2.0000
 30
0.0000
 41
0.5080
 42
0.5080
 43
1.0000
 50
0.0000
  0
INSERT
  8
51
  2
RECT
 10
14.5400
 20
2.0000
 30
0.0000
 41
0.5080
 42
0.5080
 43
1.0000
 50
0.0000
  0
INSERT
  8
17
  2
LONGP100
 10
9.4600
 20
2.0000
 30
0.0000
 41
1.5240
 42
1.5240
 43
1.0000
 50
90.0000
  0
INSERT
  8
17
  2
LONGP100
 10
9.4600
 20
2.0000
 30
0.0000
 41
1.5240
 42
1.5240
 43
1.0000
 50
90.0000
  0
INSERT
  8
17
  2
LONGP100
 10
12.0000
 20
2.0000
 30
0.0000
 41
1.5240
 42
1.5240
 43
1.0000
 50
90.0000
  0
INSERT
  8
17
  2
LONGP100
 10
12.0000
 20
2.0000
 30
0.0000
 41
1.5240
 42
1.5240
 43
1.0000
 50
90.0000
  0
INSERT
  8
17
  2
LONGP100
 10
14.5400
 20
2.0000
 30
0.0000
 41
1.5240
 42
1.5240
 43
1.0000
 50
90.0000
  0
INSERT
  8
17
  2
LONGP100
 10
14.5400
 20
2.0000
 30
0.0000
 41
1.5240
 42
1.5240
 43
1.0000
 50
90.0000
  0
POLYLINE
  8
1
 66
1
 10
0.0000
 20
0.0000
 30
0.0000
 40
0.0000
 41
0.0000
 70
1
  0
VERTEX
  8
1
 10
14.5000
 20
8.8936
 30
0.0000
  0
VERTEX
  8
1
 10
14.5400
 20
8.8936
 30
0.0000
 42
1.0000
  0
VERTEX
  8
1
 10
14.5400
 20
9.7064
 30
0.0000
  0
VERTEX
  8
1
 10
14.5000
 20
9.7064
 30
0.0000
 42
1.0000
  0
SEQEND
  8
0
  0
POLYLINE
  8
1
 66
1
 10
0.0000
 20
0.0000
 30
0.0000
 40
0.0000
 41
0.0000
 70
1
  0
VERTEX
  8
1
 10
14.1336
 20
9.3000
 30
0.0000
  0
VERTEX
  8
1
 10
14.1336
 20
2.0000
 30
0.0000
 42
1.0000
  0
VERTEX
  8
1
 10
14.9464
 20
2.0000
 30
0.0000
  0
VERTEX
  8
1
 10
14.9464
 20
9.3000
 30
0.0000
 42
1.0000
  0
SEQEND
  8
0
  0
POLYLINE
  8
1
 66
1
 10
0.0000
 20
0.0000
 30
0.0000
 40
0.0000
 41
0.0000
 70
1
  0
VERTEX
  8
1
 10
12.0000
 20
9.7064
 30
0.0000
  0
VERTEX
  8
1
 10
11.9500
 20
9.7064
 30
0.0000
 42
1.0000
  0
VERTEX
  8
1
 10
11.9500
 20
8.8936
 30
0.0000
  0
VERTEX
  8
1
 10
12.0000
 20
8.8936
 30
0.0000
 42
1.0000
  0
SEQEND
  8
0
  0
POLYLINE
  8
1
 66
1
 10
0.0000
 20
0.0000
 30
0.0000
 40
0.0000
 41
0.0000
 70
1
  0
VERTEX
  8
1
 10
11.5436
 20
9.3000
 30
0.0000
  0
VERTEX
  8
1
 10
11.5436
 20
7.0000
 30
0.0000
 42
1.0000
  0
VERTEX
  8
1
 10
12.3564
 20
7.0000
 30
0.0000
  0
VERTEX
  8
1
 10
12.3564
 20
9.3000
 30
0.0000
 42
1.0000
  0
SEQEND
  8
0
  0
POLYLINE
  8
1
 66
1
 10
0.0000
 20
0.0000
 30
0.0000
 40
0.0000
 41
0.0000
 70
1
  0
VERTEX
  8
1
 10
11.9500
 20
6.5936
 30
0.0000
  0
VERTEX
  8
1
 10
12.0000
 20
6.5936
 30
0.0000
 42
1.0000
  0
VERTEX
  8
1
 10
12.0000
 20
7.4064
 30
0.0000
  0
VERTEX
  8
1
 10
11.9500
 20
7.4064
 30
0.0000
 42
1.0000
  0
SEQEND
  8
0
  0
POLYLINE
  8
1
 66
1
 10
0.0000
 20
0.0000
 30
0.0000
 40
0.0000
 41
0.0000
 70
1
  0
VERTEX
  8
1
 10
11.5936
 20
7.0000
 30
0.0000
  0
VERTEX
  8
1
 10
11.5936
 20
5.0000
 30
0.0000
 42
1.0000
  0
VERTEX
  8
1
 10
12.4064
 20
5.0000
 30
0.0000
  0
VERTEX
  8
1
 10
12.4064
 20
7.0000
 30
0.0000
 42
1.0000
  0
SEQEND
  8
0
  0
POLYLINE
  8
1
 66
1
 10
0.0000
 20
0.0000
 30
0.0000
 40
0.0000
 41
0.0000
 70
1
  0
VERTEX
  8
1
 10
11.5936
 20
5.0000
 30
0.0000
  0
VERTEX
  8
1
 10
11.5936
 20
2.0000
 30
0.0000
 42
1.0000
  0
VERTEX
  8
1
 10
12.4064
 20
2.0000
 30
0.0000
  0
VERTEX
  8
1
 10
12.4064
 20
5.0000
 30
0.0000
 42
1.0000
  0
SEQEND
  8
0
  0
POLYLINE
  8
1
 66
1
 10
0.0000
 20
0.0000
 30
0.0000
 40
0.0000
 41
0.0000
 70
1
  0
VERTEX
  8
1
 10
9.5000
 20
8.8936
 30
0.0000
  0
VERTEX
  8
1
 10
10.0500
 20
8.8936
 30
0.0000
 42
1.0000
  0
VERTEX
  8
1
 10
10.0500
 20
9.7064
 30
0.0000
  0
VERTEX
  8
1
 10
9.5000
 20
9.7064
 30
0.0000
 42
1.0000
  0
SEQEND
  8
0
  0
POLYLINE
  8
1
 66
1
 10
0.0000
 20
0.0000
 30
0.0000
 40
0.0000
 41
0.0000
 70
1
  0
VERTEX
  8
1
 10
9.6436
 20
9.3000
 30
0.0000
  0
VERTEX
  8
1
 10
9.6436
 20
7.0000
 30
0.0000
 42
1.0000
  0
VERTEX
  8
1
 10
10.4564
 20
7.0000
 30
0.0000
  0
VERTEX
  8
1
 10
10.4564
 20
9.3000
 30
0.0000
 42
1.0000
  0
SEQEND
  8
0
  0
POLYLINE
  8
1
 66
1
 10
0.0000
 20
0.0000
 30
0.0000
 40
0.0000
 41
0.0000
 70
1
  0
VERTEX
  8
1
 10
10.0500
 20
7.4064
 30
0.0000
  0
VERTEX
  8
1
 10
10.0000
 20
7.4064
 30
0.0000
 42
1.0000
  0
VERTEX
  8
1
 10
10.0000
 20
6.5936
 30
0.0000
  0
VERTEX
  8
1
 10
10.0500
 20
6.5936
 30
0.0000
 42
1.0000
  0
SEQEND
  8
0
  0
POLYLINE
  8
1
 66
1
 10
0.0000
 20
0.0000
 30
0.0000
 40
0.0000
 41
0.0000
 70
1
  0
VERTEX
  8
1
 10
9.5936
 20
7.0000
 30
0.0000
  0
VERTEX
  8
1
 10
9.5936
 20
5.0000
 30
0.0000
 42
1.0000
  0
VERTEX
  8
1
 10
10.4064
 20
5.0000
 30
0.0000
  0
VERTEX
  8
1
 10
10.4064
 20
7.0000
 30
0.0000
 42
1.0000
  0
SEQEND
  8
0
  0
POLYLINE
  8
1
 66
1
 10
0.0000
 20
0.0000
 30
0.0000
 40
0.0000
 41
0.0000
 70
1
  0
VERTEX
  8
1
 10
9.4600
 20
1.5936
 30
0.0000
  0
VERTEX
  8
1
 10
10.0000
 20
1.5936
 30
0.0000
 42
1.0000
  0
VERTEX
  8
1
 10
10.0000
 20
2.4064
 30
0.0000
  0
VERTEX
  8
1
 10
9.4600
 20
2.4064
 30
0.0000
 42
1.0000
  0
SEQEND
  8
0
  0
POLYLINE
  8
1
 66
1
 10
0.0000
 20
0.0000
 30
0.0000
 40
0.0000
 41
0.0000
 70
1
  0
VERTEX
  8
1
 10
10.4064
 20
2.0000
 30
0.0000
  0
VERTEX
  8
1
 10
10.4064
 20
5.0000
 30
0.0000
 42
1.0000
  0
VERTEX
  8
1
 10
9.5936
 20
5.0000
 30
0.0000
  0
VERTEX
  8
1
 10
9.5936
 20
2.0000
 30
0.0000
 42
1.0000
  0
SEQEND
  8
0
  0
ENDSEC
  0
EOF
